<svg width="28" height="28" viewBox="0 0 28 28" fill="none" xmlns="http://www.w3.org/2000/svg">
<path d="M15.5 1.84106C15.5 1.01264 14.8284 0.341064 14 0.341064C13.1716 0.341064 12.5 1.01264 12.5 1.84106L15.5 1.84106ZM12.9393 27.2196C13.5251 27.8054 14.4749 27.8054 15.0607 27.2196L24.6066 17.6737C25.1924 17.0879 25.1924 16.1381 24.6066 15.5524C24.0208 14.9666 23.0711 14.9666 22.4853 15.5524L14 24.0376L5.51472 15.5524C4.92893 14.9666 3.97919 14.9666 3.3934 15.5524C2.80761 16.1381 2.80761 17.0879 3.3934 17.6737L12.9393 27.2196ZM12.5 1.84106L12.5 26.159L15.5 26.159L15.5 1.84106L12.5 1.84106Z" fill="black"/>
</svg>
