<svg width="122" height="25" viewBox="0 0 122 25" fill="none" xmlns="http://www.w3.org/2000/svg">
<path d="M31.0133 8.86435C27.7758 8.86435 25.6386 11.0015 25.6386 14.0485C25.6386 17.0744 27.7758 19.2116 31.0133 19.2116C32.3887 19.2116 33.4467 18.9365 34.1873 18.3652V15.8895H34.0815C33.4043 16.757 32.4521 17.2014 31.2249 17.2014C29.1723 17.2014 27.9027 15.9106 27.9027 14.0485C27.9027 12.1441 29.1723 10.8745 31.2249 10.8745C32.431 10.8745 33.3832 11.2766 34.0815 12.1653H34.1873V9.73191C33.4043 9.16059 32.3887 8.86435 31.0133 8.86435Z" fill="black"/>
<path d="M40.5653 8.86435C39.0841 8.86435 38.0685 9.45683 37.4971 10.5995H37.4548L37.3702 9.07595H35.4869V19H37.7299V14.5987C37.7299 12.1865 38.5975 11.0015 40.3749 11.0015C40.9885 11.0015 41.5175 11.1708 41.9407 11.467H42.0465V9.24523C41.7291 9.03363 41.2001 8.86435 40.5653 8.86435Z" fill="black"/>
<path d="M45.9547 23.0204L51.9007 9.07595H49.5942L46.8011 16.2703H46.7588L43.9868 9.07595H41.5746L45.5738 18.6826L43.6482 23.0204H45.9547Z" fill="black"/>
<path d="M55.6923 8.86435C53.3012 8.86435 51.7142 10.1339 51.7142 12.0807C51.7142 13.9639 52.6664 14.768 55.2479 14.9796C56.8561 15.1065 57.3004 15.4028 57.3004 16.0587C57.3004 16.7782 56.581 17.2437 55.4172 17.2437C53.8937 17.2437 52.6875 16.7782 51.8623 15.8895H51.7565V18.2382C52.5817 18.873 53.8725 19.2116 55.523 19.2116C57.9987 19.2116 59.5011 18.0055 59.5011 16.0587C59.5011 14.0485 58.4642 13.0752 55.8192 12.9271C54.3592 12.8424 53.9148 12.5885 53.9148 12.0172C53.9148 11.3189 54.6766 10.8322 55.7557 10.8322C57.0465 10.8322 58.0833 11.1919 58.7605 11.8902H58.8663V9.58379C58.1468 9.11827 56.983 8.86435 55.6923 8.86435Z" fill="black"/>
<path d="M66.2883 16.6301H66.1825C65.7805 17.0744 65.2938 17.2225 64.7648 17.2225C63.7914 17.2225 63.2201 16.5877 63.2201 15.5086V11.0227H66.246V9.07595H63.2201V6.34631H61.358L61.0406 9.07595H59.2209V11.0227H60.9771V15.5932C60.9771 17.942 62.1833 19.2116 64.4262 19.2116C65.2091 19.2116 65.8228 19.0846 66.2883 18.8519V16.6301Z" fill="black"/>
<path d="M77.1429 19V9.07595H75.2808L75.1962 10.4937H75.1538C74.4344 9.47799 73.2071 8.86435 71.599 8.86435C68.7635 8.86435 66.6898 11.0438 66.6898 14.0485C66.6898 17.0533 68.7635 19.2116 71.599 19.2116C73.2071 19.2116 74.4556 18.5979 75.175 17.5823H75.2173L75.2808 19H77.1429ZM71.9587 17.2014C70.1812 17.2014 68.954 15.8895 68.954 14.0485C68.954 12.1653 70.1812 10.8745 71.9587 10.8745C73.7361 10.8745 74.9634 12.1653 74.9634 14.0485C74.9634 15.8895 73.7361 17.2014 71.9587 17.2014Z" fill="black"/>
<path d="M78.8112 19H81.0542V4.18799H78.8112V19Z" fill="black"/>
<path d="M91.2151 8.86435C87.9776 8.86435 85.8405 11.0015 85.8405 14.0485C85.8405 17.0744 87.9776 19.2116 91.2151 19.2116C92.5905 19.2116 93.6485 18.9365 94.3891 18.3652V15.8895H94.2833C93.6062 16.757 92.654 17.2014 91.4267 17.2014C89.3742 17.2014 88.1046 15.9106 88.1046 14.0485C88.1046 12.1441 89.3742 10.8745 91.4267 10.8745C92.6328 10.8745 93.585 11.2766 94.2833 12.1653H94.3891V9.73191C93.6062 9.16059 92.5905 8.86435 91.2151 8.86435Z" fill="black"/>
<path d="M100.365 8.86435C97.2758 8.86435 95.0963 11.0015 95.0963 14.0485C95.0963 17.0744 97.2758 19.2116 100.365 19.2116C103.455 19.2116 105.655 17.0744 105.655 14.0485C105.655 11.0015 103.455 8.86435 100.365 8.86435ZM100.365 10.8745C102.164 10.8745 103.391 12.1653 103.391 14.0485C103.391 15.8895 102.164 17.2014 100.365 17.2014C98.5877 17.2014 97.3604 15.8895 97.3604 14.0485C97.3604 12.1653 98.5877 10.8745 100.365 10.8745Z" fill="black"/>
<path d="M107.864 4.54771C107.017 4.54771 106.446 5.14019 106.446 5.98659C106.446 6.83299 107.017 7.40431 107.864 7.40431C108.731 7.40431 109.303 6.83299 109.303 5.98659C109.303 5.14019 108.731 4.54771 107.864 4.54771ZM106.742 9.07595V19H108.985V9.07595H106.742Z" fill="black"/>
<path d="M116.041 8.86435C114.475 8.86435 113.333 9.47799 112.698 10.5995H112.655L112.571 9.07595H110.688V19H112.931V13.7946C112.931 11.9537 113.883 10.8745 115.47 10.8745C116.909 10.8745 117.776 11.8056 117.776 13.4349V19H120.019V13.181C120.019 10.4725 118.517 8.86435 116.041 8.86435Z" fill="black"/>
<path d="M16.0067 18.8259C16.0392 21.0176 12.6106 22.8456 8.34883 22.9087C4.08703 22.9719 0.605814 21.2464 0.573313 19.0547C0.540812 16.863 3.96934 15.0351 8.23114 14.9719C12.4929 14.9087 15.9742 16.6342 16.0067 18.8259Z" fill="#DFFAFB"/>
<path fill-rule="evenodd" clip-rule="evenodd" d="M13.4117 20.9596C14.7051 20.27 15.2163 19.4792 15.2067 18.8377C15.1972 18.1963 14.6628 17.421 13.3496 16.7701C12.0784 16.14 10.2735 15.7417 8.243 15.7718C6.21253 15.8019 4.42024 16.2535 3.16824 16.921C1.87488 17.6106 1.36371 18.4014 1.37323 19.0429C1.38274 19.6843 1.91713 20.4596 3.23037 21.1106C4.50161 21.7407 6.3065 22.1389 8.33697 22.1088C10.3674 22.0787 12.1597 21.6271 13.4117 20.9596ZM8.34883 22.9087C12.6106 22.8456 16.0392 21.0176 16.0067 18.8259C15.9742 16.6342 12.4929 14.9087 8.23114 14.9719C3.96934 15.0351 0.540812 16.863 0.573313 19.0547C0.605814 21.2464 4.08703 22.9719 8.34883 22.9087Z" fill="#F5F5F5"/>
<path d="M15.9429 14.5325C15.9754 16.7243 12.5469 18.5522 8.28511 18.6154C4.02331 18.6786 0.542093 16.9531 0.509592 14.7614C0.477092 12.5697 3.90562 10.7417 8.16742 10.6785C12.4292 10.6153 15.9104 12.3408 15.9429 14.5325Z" fill="#CFF8FA"/>
<path fill-rule="evenodd" clip-rule="evenodd" d="M13.348 16.6662C14.6414 15.9767 15.1525 15.1859 15.143 14.5444C15.1335 13.903 14.5991 13.1277 13.2859 12.4767C12.0146 11.8466 10.2097 11.4483 8.17928 11.4785C6.14881 11.5086 4.35652 11.9602 3.10452 12.6277C1.81116 13.3173 1.29999 14.1081 1.3095 14.7495C1.31902 15.391 1.85341 16.1663 3.16664 16.8172C4.43789 17.4473 6.24278 17.8456 8.27325 17.8155C10.3037 17.7854 12.096 17.3338 13.348 16.6662ZM8.28511 18.6154C12.5469 18.5522 15.9754 16.7243 15.9429 14.5325C15.9104 12.3408 12.4292 10.6153 8.16742 10.6785C3.90562 10.7417 0.477092 12.5697 0.509592 14.7614C0.542093 16.9531 4.02331 18.6786 8.28511 18.6154Z" fill="#F5F5F5"/>
<path d="M15.8793 10.2388C15.9118 12.4306 12.4833 14.2585 8.22145 14.3217C3.95965 14.3849 0.478433 12.6594 0.445933 10.4677C0.413432 8.276 3.84196 6.44804 8.10376 6.38484C12.3656 6.32164 15.8468 8.04714 15.8793 10.2388Z" fill="#BFF6F8"/>
<path fill-rule="evenodd" clip-rule="evenodd" d="M13.2843 12.3725C14.5777 11.683 15.0889 10.8922 15.0794 10.2507C15.0699 9.60926 14.5355 8.83395 13.2222 8.18303C11.951 7.55293 10.1461 7.15464 8.11562 7.18475C6.08515 7.21486 4.29286 7.66649 3.04086 8.33401C1.7475 9.02358 1.23633 9.81439 1.24584 10.4558C1.25536 11.0973 1.78975 11.8726 3.10298 12.5235C4.37423 13.1536 6.17912 13.5519 8.20959 13.5218C10.2401 13.4917 12.0323 13.0401 13.2843 12.3725ZM8.22145 14.3217C12.4833 14.2585 15.9118 12.4306 15.8793 10.2388C15.8468 8.04714 12.3656 6.32164 8.10376 6.38484C3.84196 6.44804 0.413432 8.276 0.445933 10.4677C0.478433 12.6594 3.95965 14.3849 8.22145 14.3217Z" fill="#F5F5F5"/>
<path d="M15.8156 5.94539C15.8481 8.1371 12.4196 9.96506 8.15779 10.0283C3.89599 10.0915 0.414774 8.36596 0.382273 6.17425C0.349772 3.98254 3.7783 2.15458 8.0401 2.09138C12.3019 2.02818 15.7831 3.75368 15.8156 5.94539Z" fill="#ACF3F6"/>
<path fill-rule="evenodd" clip-rule="evenodd" d="M13.2207 8.07908C14.514 7.38951 15.0252 6.5987 15.0157 5.95725C15.0062 5.3158 14.4718 4.54049 13.1586 3.88958C11.8873 3.25947 10.0824 2.86118 8.05196 2.89129C6.02149 2.9214 4.2292 3.37303 2.9772 4.04056C1.68384 4.73012 1.17267 5.52093 1.18218 6.16239C1.1917 6.80384 1.72609 7.57914 3.03932 8.23006C4.31057 8.86016 6.11546 9.25845 8.14593 9.22834C10.1764 9.19823 11.9687 8.7466 13.2207 8.07908ZM8.15779 10.0283C12.4196 9.96506 15.8481 8.1371 15.8156 5.94539C15.7831 3.75368 12.3019 2.02818 8.0401 2.09138C3.7783 2.15458 0.349772 3.98254 0.382273 6.17425C0.414774 8.36596 3.89599 10.0915 8.15779 10.0283Z" fill="#F5F5F5"/>
</svg>
