<svg width="127" height="26" viewBox="0 0 127 26" fill="none" xmlns="http://www.w3.org/2000/svg">
<path d="M32.0133 9.73996C28.7758 9.73996 26.6386 11.8771 26.6386 14.9242C26.6386 17.95 28.7758 20.0872 32.0133 20.0872C33.3887 20.0872 34.4467 19.8121 35.1873 19.2408V16.7651H35.0815C34.4043 17.6326 33.4521 18.077 32.2249 18.077C30.1723 18.077 28.9027 16.7862 28.9027 14.9242C28.9027 13.0198 30.1723 11.7502 32.2249 11.7502C33.431 11.7502 34.3832 12.1522 35.0815 13.0409H35.1873V10.6075C34.4043 10.0362 33.3887 9.73996 32.0133 9.73996Z" fill="black"/>
<path d="M41.5653 9.73996C40.0841 9.73996 39.0685 10.3324 38.4971 11.4751H38.4548L38.3702 9.95156H36.4869V19.8756H38.7299V15.4743C38.7299 13.0621 39.5975 11.8771 41.3749 11.8771C41.9885 11.8771 42.5175 12.0464 42.9407 12.3426H43.0465V10.1208C42.7291 9.90924 42.2001 9.73996 41.5653 9.73996Z" fill="black"/>
<path d="M46.9547 23.896L52.9007 9.95156H50.5942L47.8011 17.146H47.7588L44.9868 9.95156H42.5746L46.5738 19.5582L44.6482 23.896H46.9547Z" fill="black"/>
<path d="M56.6923 9.73996C54.3012 9.73996 52.7142 11.0096 52.7142 12.9563C52.7142 14.8395 53.6664 15.6436 56.2479 15.8552C57.8561 15.9822 58.3004 16.2784 58.3004 16.9344C58.3004 17.6538 57.581 18.1193 56.4172 18.1193C54.8937 18.1193 53.6875 17.6538 52.8623 16.7651H52.7565V19.1138C53.5817 19.7486 54.8725 20.0872 56.523 20.0872C58.9987 20.0872 60.5011 18.8811 60.5011 16.9344C60.5011 14.9242 59.4642 13.9508 56.8192 13.8027C55.3592 13.718 54.9148 13.4641 54.9148 12.8928C54.9148 12.1945 55.6766 11.7078 56.7557 11.7078C58.0465 11.7078 59.0833 12.0676 59.7605 12.7658H59.8663V10.4594C59.1468 9.99388 57.983 9.73996 56.6923 9.73996Z" fill="black"/>
<path d="M67.2883 17.5057H67.1825C66.7805 17.95 66.2938 18.0982 65.7648 18.0982C64.7914 18.0982 64.2201 17.4634 64.2201 16.3842V11.8983H67.246V9.95156H64.2201V7.22192H62.358L62.0406 9.95156H60.2209V11.8983H61.9771V16.4688C61.9771 18.8176 63.1833 20.0872 65.4262 20.0872C66.2091 20.0872 66.8228 19.9602 67.2883 19.7275V17.5057Z" fill="black"/>
<path d="M78.1429 19.8756V9.95156H76.2808L76.1962 11.3693H76.1538C75.4344 10.3536 74.2071 9.73996 72.599 9.73996C69.7635 9.73996 67.6898 11.9194 67.6898 14.9242C67.6898 17.9289 69.7635 20.0872 72.599 20.0872C74.2071 20.0872 75.4556 19.4736 76.175 18.4579H76.2173L76.2808 19.8756H78.1429ZM72.9587 18.077C71.1812 18.077 69.954 16.7651 69.954 14.9242C69.954 13.0409 71.1812 11.7502 72.9587 11.7502C74.7361 11.7502 75.9634 13.0409 75.9634 14.9242C75.9634 16.7651 74.7361 18.077 72.9587 18.077Z" fill="black"/>
<path d="M79.8112 19.8756H82.0542V5.0636H79.8112V19.8756Z" fill="black"/>
<path d="M92.2151 9.73996C88.9776 9.73996 86.8405 11.8771 86.8405 14.9242C86.8405 17.95 88.9776 20.0872 92.2151 20.0872C93.5905 20.0872 94.6485 19.8121 95.3891 19.2408V16.7651H95.2833C94.6062 17.6326 93.654 18.077 92.4267 18.077C90.3742 18.077 89.1046 16.7862 89.1046 14.9242C89.1046 13.0198 90.3742 11.7502 92.4267 11.7502C93.6328 11.7502 94.585 12.1522 95.2833 13.0409H95.3891V10.6075C94.6062 10.0362 93.5905 9.73996 92.2151 9.73996Z" fill="black"/>
<path d="M106.549 19.8756V9.95156H104.687L104.603 11.3693H104.56C103.841 10.3536 102.614 9.73996 101.005 9.73996C98.17 9.73996 96.0963 11.9194 96.0963 14.9242C96.0963 17.9289 98.17 20.0872 101.005 20.0872C102.614 20.0872 103.862 19.4736 104.581 18.4579H104.624L104.687 19.8756H106.549ZM101.365 18.077C99.5877 18.077 98.3604 16.7651 98.3604 14.9242C98.3604 13.0409 99.5877 11.7502 101.365 11.7502C103.143 11.7502 104.37 13.0409 104.37 14.9242C104.37 16.7651 103.143 18.077 101.365 18.077Z" fill="black"/>
<path d="M113.296 9.73996C111.815 9.73996 110.799 10.3324 110.228 11.4751H110.186L110.101 9.95156H108.218V19.8756H110.461V15.4743C110.461 13.0621 111.328 11.8771 113.106 11.8771C113.719 11.8771 114.248 12.0464 114.671 12.3426H114.777V10.1208C114.46 9.90924 113.931 9.73996 113.296 9.73996Z" fill="black"/>
<path d="M125.061 19.8756V5.0636H122.818V10.9884H122.776C122.035 10.2055 120.935 9.73996 119.517 9.73996C116.682 9.73996 114.608 11.9194 114.608 14.9242C114.608 17.9289 116.682 20.0872 119.517 20.0872C121.125 20.0872 122.374 19.4736 123.093 18.4579H123.135L123.199 19.8756H125.061ZM119.877 18.077C118.099 18.077 116.872 16.7651 116.872 14.9242C116.872 13.0409 118.099 11.7502 119.877 11.7502C121.654 11.7502 122.882 13.0409 122.882 14.9242C122.882 16.7651 121.654 18.077 119.877 18.077Z" fill="black"/>
<path d="M4.18371 17.95C4.02439 17.95 3.88026 18.0445 3.81681 18.1907L2.61312 20.9628C2.49842 21.227 2.69204 21.5221 2.98003 21.5221L15.3294 21.5221C15.6225 21.5221 15.8161 21.2173 15.6915 20.952L14.3889 18.1798C14.3229 18.0395 14.1819 17.9499 14.0268 17.95L4.18371 17.95Z" fill="#DFFAFB"/>
<path d="M3.44225 13.7098C3.28293 13.7098 3.13881 13.8043 3.07535 13.9504L1.87167 16.7226C1.75697 16.9867 1.95059 17.2819 2.23857 17.2819L16.1302 17.2819C16.4233 17.2819 16.6169 16.977 16.4922 16.7118L15.1896 13.9396C15.1237 13.7993 14.9826 13.7097 14.8276 13.7097L3.44225 13.7098Z" fill="#CFF8FA"/>
<path d="M2.60583 9.46941C2.44651 9.46941 2.30238 9.56395 2.23893 9.71009L1.03524 12.4822C0.920543 12.7464 1.11416 13.0416 1.40215 13.0416L16.9074 13.0415C17.2005 13.0415 17.3941 12.7367 17.2694 12.4714L15.9668 9.69925C15.9009 9.55894 15.7598 9.46936 15.6048 9.46936L2.60583 9.46941Z" fill="#BFF6F8"/>
<path d="M1.81347 5.22917C1.65415 5.22917 1.51002 5.32372 1.44657 5.46986L0.242883 8.24201C0.128184 8.50616 0.321806 8.80132 0.60979 8.80132L17.7061 8.80127C17.9992 8.80127 18.1927 8.49644 18.0681 8.23116L16.7655 5.45901C16.6996 5.3187 16.5585 5.22912 16.4035 5.22913L1.81347 5.22917Z" fill="#ACF3F6"/>
</svg>
