<svg width="675" height="349" viewBox="0 0 675 349" fill="none" xmlns="http://www.w3.org/2000/svg">
<g clip-path="url(#clip0_1551_95)">
<path d="M392.057 180.483V195.809H462.429C464.4 158.267 445.918 137.336 423.149 137.336C400.38 137.336 383.869 158.531 383.869 187.891C383.869 217.515 400.969 238.965 424.361 238.965C443.433 238.965 457.777 223.638 461.705 206.024H446.48C442.749 214.453 435.075 221.597 424.267 221.597C409.137 221.597 397.922 207.045 397.922 187.891C397.922 168.992 408.758 154.686 423.081 154.686C437.405 154.686 448.268 168.948 448.268 187.891L453.767 180.483H392.057ZM191.592 130.43H207.324V110H191.565L191.592 130.43ZM160.899 236.405H224.973V219.556H160.899V236.405ZM193.529 156.736V236.405H207.284V162.869C207.284 148.061 201.994 139.914 189.397 139.914H160.899V156.745H193.529V156.736ZM503.118 139.914H471.674V156.736H489.364L489.56 236.405H503.322L503.118 182.788C503.118 166.441 511.577 156.745 523.361 156.745H535.748V139.914H525.921C512.16 139.914 505.475 146.302 501.744 158.311L499.78 164.69L503.118 165.455V139.914ZM313.063 139.914H332.703V116.898H346.458V139.914H377.117V156.736H346.458V219.556H377.117V236.405H352.546C339.963 236.405 332.689 225.679 332.689 210.89V156.736H313.063V139.914ZM471.667 236.405H535.741V219.556H471.667V236.405ZM150.293 173.057C150.293 136.571 129.461 110 100.759 110H53V236.422H100.759C129.454 236.422 150.293 209.851 150.293 173.075M276.261 137.327C264.071 137.327 254.447 147.005 250.905 158.258V139.914H237.17V236.405H250.925V187.372C250.925 171.799 255.253 155.197 272.353 155.197C286.508 155.197 293.781 165.922 293.781 188.63V236.387H307.543V185.357C307.543 150.639 292.4 137.371 276.281 137.371M581.72 239C604.319 239 621 217.55 621 188.181C621 158.813 604.299 137.371 581.72 137.371C558.917 137.371 542.406 158.822 542.406 188.181C542.406 217.541 558.917 239 581.72 239ZM581.72 221.632C567.376 221.632 556.56 207.335 556.56 188.199C556.56 169.063 567.396 154.766 581.72 154.766C596.043 154.766 606.879 169.054 606.879 188.199C606.879 207.344 596.043 221.632 581.72 221.632ZM67.5337 218.535V127.913H98.9783C120.21 127.913 135.34 147.067 135.34 173.664C135.34 199.707 120.21 218.614 98.9783 218.614H67.5337V218.535Z" fill="#0000FF"/>
</g>
<defs>
<clipPath id="clip0_1551_95">
<rect width="568" height="129" fill="white" transform="translate(53 110)"/>
</clipPath>
</defs>
</svg>
