<svg id="Capa_1" enable-background="new 0 0 512 512" height="512" viewBox="0 0 512 512" width="512" xmlns="http://www.w3.org/2000/svg"><g><g><path d="m256 364.284 28.284-28.284 40-40-28.284-28.284-20 20v-91.716h-40v91.716l-20-20-28.284 28.284 40 40z" fill="#0E0E0E"/><path d="m304.284 0h-168.284c-33.084 0-60 26.916-60 60v392c0 33.084 26.916 60 60 60h240c33.084 0 60-26.916 60-60v-320.284zm11.716 68.284 51.716 51.716h-31.716c-11.028 0-20-8.972-20-20zm60 403.716h-240c-11.028 0-20-8.972-20-20v-392c0-11.028 8.972-20 20-20h140v60c0 33.084 26.916 60 60 60h60v292c0 11.028-8.972 20-20 20z" fill="#0E0E0E"/><path d="m316 396h-120v-40h-40v80h200v-80h-40z" fill="#0E0E0E"/></g></g></svg>