<svg id="artwork" xmlns="http://www.w3.org/2000/svg" viewBox="0 0 920 120"><defs><style>.cls-1{fill:#28145f}</style></defs><path class="cls-1" d="M358.52 63.49v44.19h-18.21L340 65.8c-.16-16-6.12-19.69-14.07-19.69-8.77 0-17.21 5.46-17.38 20.69v40.88h-18.23L290 65.8c-.17-16-6.12-19.69-14.4-19.69-8.61 0-16.89 5.46-17 20.69l-.33 40.88H240V32.37h16.22v12.08c4.47-9.27 13.24-14.4 25.33-14.4 11.09 0 20.19 3.47 24 15.72 4.3-10.09 13.91-15.72 26.65-15.72 15.06 0 26.32 6.45 26.32 33.44zM376.9 70.27c0-24.5 17.55-40.22 40.72-40.22s40.72 15.72 40.72 40.22c0 24.34-17.21 39.73-40.72 39.73S376.9 94.61 376.9 70.27zm62.57-.33c-.16-13.41-8.94-22.84-21.85-22.84-12.74 0-21.52 9.6-21.85 22.84-.33 13.57 9.11 23 21.85 23 12.91.06 22.18-9.43 21.85-23zM543 63.49v44.19h-18l-.33-41.88c-.17-16-6-19.53-14.41-19.53-9.27 0-17.38 5.46-17.54 20.2l-.33 41.21h-18.22V32.37h16.22v12.08c4.47-9.1 13.41-14.4 25.66-14.4 15.89 0 26.95 6.45 26.95 33.44zM610.09 103.88c-4.8 3.64-12.58 6.12-21.85 6.12-16.22 0-23.34-8.44-23.34-29.46V47.59h-9.27V32.37h9.27V5h18.21v27.2h21.68v15.06l-21.68.17v31.78c0 10.43 3 14.73 10.09 14.73a18.63 18.63 0 0012.58-4.8zM618.2 70.27c0-24.5 17.55-40.22 40.72-40.22s40.72 15.72 40.72 40.22c0 24.34-17.21 39.73-40.72 39.73S618.2 94.61 618.2 70.27zm62.57-.33c-.17-13.41-8.94-22.84-21.85-22.84-12.75 0-21.52 9.6-21.85 22.84-.33 13.57 9.1 23 21.85 23 12.91.06 22.18-9.43 21.85-23zM784.33 63.49v44.19h-18.05L766 65.8c-.16-16-6-19.53-14.4-19.53-9.27 0-17.38 5.46-17.54 20.2l-.33 41.21h-18.26V32.37h16.22v12.08c4.47-9.1 13.41-14.4 25.66-14.4 15.89 0 26.98 6.45 26.98 33.44zM803.4 10.92a11 11 0 0122 0 11 11 0 01-22 0zM804.72 32.37h18.54l-.33 75.31h-18.21V32.37zM838.56 70.27c0-24.5 17.54-40.22 40.72-40.22S920 45.77 920 70.27c0 24.34-17.22 39.73-40.72 39.73s-40.72-15.39-40.72-39.73zm62.57-.33c-.13-13.41-8.94-22.84-21.85-22.84-12.75 0-21.52 9.6-21.85 22.84-.33 13.57 9.1 23 21.85 23 12.91.06 22.18-9.43 21.85-23zM188.49 73.25l-37-37a21.45 21.45 0 00-30.35 0L109.48 48 92 30.53q-.6-.68-1.23-1.32A31.39 31.39 0 0068.54 20h-.08a31.39 31.39 0 00-22.25 9.21q-.63.64-1.23 1.32L9.21 66.29a31.47 31.47 0 0044.5 44.5L68.5 96l14.79 14.8a31.45 31.45 0 0053-29.08l21.89 21.89a21.46 21.46 0 0030.36-30.35zm-67.78 30.46a21.45 21.45 0 01-30.35 0L75.57 88.92l-7.07-7.07-7.07 7.07-14.79 14.79a21.46 21.46 0 11-30.35-30.35L52.05 37.6l.2-.2.19-.21c.31-.35.58-.64.85-.9A21.28 21.28 0 0168.46 30h.08a21.32 21.32 0 0115.18 6.29c.26.26.53.55.84.89l.19.22.2.2 35.76 35.76a21.45 21.45 0 010 30.35z"/></svg>