<svg width="100" height="100" viewBox="0 0 100 100" fill="none" xmlns="http://www.w3.org/2000/svg">
<path d="M88.6494 24.1062C87.3176 22.5094 85.6806 21.1943 83.8343 20.2379C81.988 19.2815 79.9695 18.703 77.8968 18.5363C75.8242 18.3695 73.7392 18.6179 71.7637 19.2669C69.7883 19.9159 67.9621 20.9525 66.3922 22.3159C66.3305 22.2865 66.3305 22.2247 66.3011 22.1924C62.3131 18.7497 57.5111 16.384 52.3514 15.3199C47.1916 14.2559 41.8454 14.5288 36.8208 16.1129C35.611 14.2477 34.0172 12.6621 32.1458 11.462C30.2743 10.2618 28.1684 9.47479 25.9685 9.15341C23.7687 8.83203 21.5256 8.98371 19.389 9.59831C17.2525 10.2129 15.2717 11.2763 13.5788 12.7175C5.0887 19.723 6.04708 32.5963 13.2848 40.034C13.3818 40.1518 13.504 40.2462 13.6425 40.3103C13.7809 40.3744 13.9319 40.4066 14.0845 40.4044C10.5306 51.2378 10.9137 62.9778 15.1663 73.5565C22.2042 89.5783 40.6955 93.3442 56.5292 90.3133C75.8201 86.6386 84.0956 70.5579 81.5174 52.2224C83.7331 50.8286 85.8102 49.226 87.7204 47.4364C90.6533 44.3085 92.3615 40.2289 92.5321 35.9444C92.7027 31.66 91.3243 27.4574 88.6494 24.1062V24.1062ZM13.9786 15.3397C15.3519 13.9179 17.0215 12.8158 18.8687 12.1119C20.7159 11.408 22.6954 11.1194 24.6667 11.2667C26.638 11.4141 28.5527 11.9936 30.2747 12.9643C31.9968 13.935 33.484 15.2729 34.6307 16.8831C30.8287 18.2666 27.348 20.409 24.4002 23.1802C20.0993 27.4299 16.821 32.6021 14.8135 38.3054C8.88692 32.1936 7.61987 21.7544 13.9786 15.3397ZM55.8971 88.1261C40.0223 90.9983 21.8808 86.862 16.2629 69.9758C11.6327 56.0559 14.4049 37.5028 24.4002 26.5462C34.3955 15.5896 53.2749 13.4583 64.6754 23.8299C64.7077 23.8593 64.7371 23.8593 64.7694 23.8916C61.6024 27.6547 60.0429 32.5127 60.4279 37.416C60.813 42.3193 63.1117 46.8743 66.8273 50.0969C68.7014 51.5243 70.8805 52.4985 73.194 52.9432C75.5074 53.388 77.8924 53.2912 80.1622 52.6604C80.9942 69.9464 74.6707 84.7306 55.8971 88.1261ZM67.1654 47.2894C65.6412 45.7013 64.4553 43.8203 63.6796 41.7604C62.904 39.7004 62.5546 37.5044 62.6527 35.3055C62.7509 33.1065 63.2944 30.9503 64.2505 28.9677C65.2066 26.985 66.5553 25.2171 68.2149 23.7711C69.7807 22.4963 71.6147 21.5922 73.5794 21.1265C75.5441 20.6608 77.5887 20.6455 79.5601 21.0818C81.5316 21.5181 83.3788 22.3947 84.9635 23.646C86.5482 24.8972 87.8294 26.4907 88.7111 28.3072C95.1316 40.863 78.8922 59.1103 67.1654 47.2894Z" fill="#528693"/>
<path d="M45.896 53.7393C45.6814 55.0357 45.3081 56.3028 45.1875 57.6286C45.0833 58.8604 45.0421 60.0967 45.0641 61.3328C45.0317 62.444 43.2414 62.7527 43.0562 61.5797C42.5895 58.6752 43.032 55.6975 44.3232 53.0543C44.8171 52.1665 46.0195 52.8456 45.896 53.7393Z" fill="#528693"/>
<path d="M30.1532 49.8209C29.9386 51.1174 29.5653 52.4138 29.4447 53.7397C29.341 54.9617 29.2988 56.1881 29.3183 57.4144C29.2889 58.5256 27.4986 58.8637 27.3134 57.6907C26.8443 54.7863 27.287 51.8079 28.5804 49.1653C29.0743 48.2452 30.2796 48.9243 30.1532 49.8209Z" fill="#528693"/>
<path d="M88.8668 23.9358C87.4254 22.1344 85.5949 20.6827 83.5126 19.6894C81.4303 18.6961 79.1501 18.187 76.8431 18.2002C73.0531 18.2089 69.3807 19.5174 66.4391 21.9073C60.8751 17.007 53.6856 14.3544 46.2722 14.4667C43.1212 14.4689 39.9855 14.9042 36.953 15.7602C35.437 13.6184 33.4398 11.862 31.1219 10.632C28.8039 9.40211 26.2298 8.73292 23.6063 8.67822C19.8609 8.70475 16.2462 10.0589 13.4053 12.5C11.569 14.0089 10.0723 15.8889 9.01344 18.0168C7.95458 20.1447 7.35741 22.4723 7.2611 24.8471C7.13168 27.6684 7.57846 30.4865 8.57417 33.1294C9.56989 35.7724 11.0936 38.1847 13.0525 40.2193C13.2167 40.4248 13.444 40.5704 13.6992 40.6338C10.2155 51.4459 10.6316 63.137 14.8752 73.6741C19.8728 85.0511 31.4262 91.5775 46.5367 91.5775C49.9015 91.5747 53.2582 91.2509 56.5614 90.6103C74.7 87.1678 84.6071 72.0896 81.7261 52.393C81.7849 52.3312 82.0788 52.1548 82.3434 51.9784C84.3587 50.7611 86.2236 49.3106 87.8996 47.6569C90.8933 44.4838 92.6397 40.3359 92.8174 35.9771C92.9952 31.6183 91.5922 27.3421 88.8668 23.9358V23.9358ZM14.1961 15.5544C15.4023 14.2854 16.8516 13.2722 18.4578 12.5752C20.0639 11.8782 21.7938 11.5117 23.5446 11.4975C25.595 11.5205 27.6139 12.0052 29.4513 12.9157C31.2886 13.8262 32.8971 15.1391 34.1573 16.7568C30.4587 18.1277 27.0779 20.2372 24.2208 22.9568C19.9863 27.1184 16.7333 32.1721 14.6988 37.7498C9.4336 32.0202 7.75792 22.0484 14.1961 15.5544ZM55.8559 87.8469C52.8391 88.3942 49.7792 88.6687 46.7131 88.6671C31.5144 88.6671 20.5196 81.8173 16.5508 69.8818C11.7002 55.3327 15.1103 37.1913 24.6353 26.755C27.4447 23.7776 30.8356 21.409 34.5979 19.7958C38.3603 18.1827 42.4138 17.3594 46.5073 17.3771C53.0546 17.2935 59.4046 19.617 64.3519 23.9064C61.2206 27.6364 59.698 32.4569 60.1186 37.3089C60.2712 39.8077 60.928 42.2499 62.0497 44.4881C63.1713 46.7263 64.7344 48.7142 66.6449 50.3322C69.3437 52.4188 72.6707 53.5278 76.0817 53.4777C77.3588 53.4828 78.632 53.3348 79.874 53.0368C80.7236 72.5276 72.1688 84.8747 55.8559 87.8469ZM87.2823 43.2767C86.116 45.4149 84.4302 47.225 82.3802 48.5403C80.3303 49.8555 77.9822 50.6335 75.5525 50.8025C74.007 50.7756 72.4837 50.4305 71.0775 49.7886C69.6714 49.1467 68.4127 48.2219 67.3799 47.0719C65.8231 45.4294 64.6268 43.4798 63.8674 41.348C63.108 39.2162 62.8024 36.9492 62.9702 34.6925C63.0646 32.6248 63.5985 30.6011 64.5363 28.7559C65.474 26.9108 66.7942 25.2866 68.4088 23.9916C70.7994 22.1152 73.7482 21.0909 76.7872 21.0812C79.2264 21.0867 81.6148 21.779 83.6789 23.0788C85.7429 24.3786 87.3992 26.2333 88.4582 28.4307C89.5437 30.8005 90.0052 33.4085 89.7989 36.0069C89.5925 38.6053 88.7252 41.1078 87.2793 43.2767H87.2823Z" fill="#528693"/>
<path d="M34.1574 16.7568C30.4588 18.1278 27.078 20.2373 24.2209 22.9569C19.9864 27.1185 16.7334 32.1722 14.6989 37.7499C9.4367 32.0203 7.76101 22.0514 14.1992 15.5545C15.4054 14.2855 16.8547 13.2723 18.4608 12.5753C20.067 11.8783 21.7969 11.5118 23.5477 11.4976C25.5976 11.521 27.616 12.0059 29.4527 12.9164C31.2895 13.8269 32.8976 15.1396 34.1574 16.7568V16.7568Z" fill="#BFF6F8"/>
<path d="M87.2792 43.2765C86.1129 45.4147 84.4271 47.2249 82.3771 48.5401C80.3272 49.8554 77.9791 50.6334 75.5494 50.8024C74.0039 50.7755 72.4806 50.4303 71.0744 49.7885C69.6683 49.1466 68.4096 48.2218 67.3768 47.0718C65.82 45.4293 64.6236 43.4796 63.8643 41.3478C63.1049 39.216 62.7993 36.9491 62.9671 34.6923C63.0615 32.6247 63.5954 30.6009 64.5331 28.7558C65.4709 26.9106 66.7911 25.2865 68.4057 23.9915C70.7963 22.1151 73.7451 21.0908 76.7841 21.0811C79.2233 21.0866 81.6117 21.7788 83.6757 23.0786C85.7398 24.3784 87.3961 26.2332 88.4551 28.4305C89.541 30.8001 90.003 33.408 89.7972 36.0064C89.5914 38.6048 88.7246 41.1074 87.2792 43.2765V43.2765Z" fill="#BFF6F8"/>
<path d="M79.8715 53.0369C78.6296 53.3349 77.3564 53.4829 76.0792 53.4778C72.6682 53.5279 69.3412 52.4189 66.6424 50.3323C64.732 48.7143 63.1688 46.7264 62.0472 44.4882C60.9256 42.25 60.2687 39.8078 60.1161 37.309C59.6955 32.457 61.2181 27.6365 64.3494 23.9065C59.4022 19.6171 53.0521 17.2936 46.5049 17.3772C42.4115 17.3592 38.3581 18.182 34.5958 19.7946C30.8335 21.4072 27.4424 23.7753 24.6328 26.7522C15.1079 37.1884 11.6977 55.3299 16.5484 69.8789C20.5171 81.8145 31.5119 88.6642 46.7106 88.6642C49.7776 88.667 52.8385 88.3935 55.8563 87.847C72.1692 84.8748 80.724 72.5277 79.8715 53.0369ZM28.3075 49.0387C28.3934 48.8601 28.5264 48.7082 28.6921 48.5994C28.8579 48.4906 29.0502 48.4291 29.2483 48.4214C29.4178 48.4298 29.5837 48.4734 29.7355 48.5493C29.8873 48.6252 30.0217 48.7318 30.1302 48.8624C30.2531 48.9957 30.3457 49.1541 30.4015 49.3267C30.4573 49.4992 30.4751 49.6818 30.4536 49.8619C30.3654 50.3646 30.2478 50.8614 30.1596 51.3612C29.9633 52.1535 29.8257 52.9592 29.748 53.7718C29.6509 54.6109 29.6116 55.4556 29.6304 56.3L29.601 57.4172C29.582 57.7746 29.4235 58.1103 29.1597 58.3521C28.8958 58.594 28.5477 58.7227 28.1899 58.7107C27.9097 58.7206 27.6355 58.6278 27.4189 58.4497C27.2023 58.2716 27.0583 58.0204 27.014 57.7435C26.5374 54.7779 26.9892 51.7376 28.3075 49.0387V49.0387ZM42.0364 72.4424C41.5779 73.2509 40.9031 73.9155 40.0878 74.3616C39.2725 74.8077 38.3489 75.0176 37.4209 74.9677C36.772 74.9776 36.126 74.8782 35.51 74.6737C34.3637 74.2628 33.3898 73.4765 32.7466 72.4424C31.9194 73.2464 30.8134 73.6994 29.6598 73.7066C28.6015 73.6238 27.6085 73.162 26.8632 72.4059C26.118 71.6498 25.6705 70.6503 25.6029 69.5908C25.5903 69.4411 25.6101 69.2903 25.6608 69.1488C25.7115 69.0073 25.792 68.8783 25.8969 68.7706C26.0257 68.636 26.181 68.5297 26.3531 68.4583C26.5252 68.3869 26.7102 68.3522 26.8964 68.3561C27.1722 68.336 27.4451 68.4228 27.6586 68.5985C27.872 68.7742 28.0097 69.0253 28.0429 69.2998C28.1605 70.2111 28.7191 71.2665 29.8362 71.2665C30.63 71.2665 31.1591 70.6786 31.7471 70.0906C31.7471 69.532 31.6883 69.1793 31.6883 68.8559C31.6882 68.699 31.7196 68.5436 31.7805 68.399C31.8415 68.2544 31.9307 68.1234 32.043 68.0138C32.1554 67.9042 32.2885 67.8182 32.4346 67.7609C32.5807 67.7036 32.7367 67.6761 32.8936 67.68C33.0575 67.6725 33.2211 67.7004 33.3733 67.7618C33.5255 67.8232 33.6627 67.9166 33.7755 68.0357C33.8831 68.1488 33.9671 68.2821 34.0227 68.428C34.0782 68.5738 34.1041 68.7293 34.0989 68.8853C34.0576 69.6799 34.2844 70.4654 34.7428 71.1158C35.2013 71.7661 35.8648 72.2437 36.6271 72.4718C36.878 72.5285 37.1343 72.5581 37.3915 72.56C38.5896 72.4383 39.72 71.9461 40.6253 71.1519C40.7793 71.0401 40.9641 70.9785 41.1544 70.9755C41.3076 70.982 41.4569 71.0252 41.5899 71.1015C41.7229 71.1777 41.8357 71.2847 41.9188 71.4135C42.0161 71.5644 42.0776 71.7356 42.0985 71.914C42.1193 72.0923 42.0991 72.2731 42.0393 72.4424H42.0364ZM45.8875 55.2711C45.7078 56.0569 45.5704 56.8518 45.4759 57.6523C45.3782 58.511 45.3389 59.3754 45.3583 60.2394V61.3271C45.34 61.6848 45.1818 62.0209 44.9178 62.2629C44.6538 62.5049 44.3052 62.6334 43.9472 62.6206C43.661 62.6344 43.3802 62.5388 43.1618 62.3532C42.9434 62.1675 42.8038 61.9058 42.7713 61.6211C42.2845 58.6566 42.7368 55.614 44.0648 52.9193C44.1513 52.7495 44.2812 52.6057 44.4412 52.5025C44.6013 52.3992 44.7859 52.3401 44.9762 52.3313C45.1503 52.3393 45.321 52.3828 45.4777 52.4591C45.6344 52.5355 45.7739 52.643 45.8875 52.7752C46.0046 52.9108 46.0915 53.0699 46.1422 53.2418C46.1929 53.4136 46.2063 53.5943 46.1815 53.7718C46.0933 54.301 46.0051 54.7743 45.8875 55.2682V55.2711Z" fill="#BFF6F8"/>
<path d="M46.1811 53.7716C46.0929 54.3007 46.0047 54.774 45.8871 55.2708C45.7075 56.0567 45.5701 56.8515 45.4755 57.6521C45.3778 58.5108 45.3385 59.3751 45.3579 60.2391V61.3268C45.3397 61.6845 45.1814 62.0206 44.9174 62.2627C44.6534 62.5047 44.3048 62.6331 43.9468 62.6203C43.6606 62.6341 43.3798 62.5385 43.1614 62.3529C42.943 62.1673 42.8034 61.9055 42.7709 61.6208C42.2842 58.6563 42.7364 55.6138 44.0644 52.919C44.1509 52.7493 44.2808 52.6055 44.4409 52.5022C44.6009 52.3989 44.7855 52.3399 44.9758 52.3311C45.1499 52.339 45.3206 52.3825 45.4773 52.4588C45.634 52.5352 45.7735 52.6428 45.8871 52.775C46.0043 52.9106 46.0911 53.0696 46.1418 53.2415C46.1925 53.4134 46.2059 53.5941 46.1811 53.7716Z" fill="#528693"/>
<path d="M30.4532 49.8619C30.365 50.3646 30.2474 50.8614 30.1592 51.3612C29.9629 52.1535 29.8253 52.9592 29.7477 53.7718C29.6505 54.6109 29.6112 55.4556 29.6301 56.3L29.6007 57.4172C29.5816 57.7746 29.4232 58.1103 29.1593 58.3521C28.8955 58.594 28.5473 58.7227 28.1896 58.7107C27.9093 58.7206 27.6351 58.6278 27.4185 58.4497C27.2019 58.2715 27.0579 58.0204 27.0137 57.7435C26.5371 54.7779 26.9889 51.7376 28.3072 49.0387C28.393 48.8601 28.526 48.7082 28.6918 48.5994C28.8575 48.4906 29.0498 48.4291 29.2479 48.4214C29.4174 48.4298 29.5833 48.4734 29.7352 48.5493C29.887 48.6252 30.0214 48.7318 30.1298 48.8624C30.2527 48.9957 30.3453 49.1541 30.4011 49.3267C30.4569 49.4992 30.4747 49.6818 30.4532 49.8619V49.8619Z" fill="#528693"/>
<path d="M42.0387 72.4424C41.5803 73.2508 40.9055 73.9154 40.0902 74.3615C39.2748 74.8076 38.3513 75.0175 37.4232 74.9676C36.7743 74.9775 36.1283 74.8781 35.5124 74.6737C34.366 74.2627 33.3922 73.4764 32.749 72.4424C31.9218 73.2464 30.8157 73.6993 29.6622 73.7065C28.6038 73.6237 27.6108 73.1619 26.8655 72.4058C26.1203 71.6498 25.6728 70.6502 25.6053 69.5908C25.5927 69.441 25.6124 69.2902 25.6631 69.1487C25.7138 69.0072 25.7944 68.8782 25.8992 68.7706C26.028 68.6359 26.1833 68.5296 26.3554 68.4582C26.5275 68.3869 26.7125 68.3521 26.8988 68.356C27.1745 68.3359 27.4474 68.4227 27.6609 68.5984C27.8744 68.7741 28.012 69.0252 28.0453 69.2997C28.1629 70.2111 28.7214 71.2664 29.8386 71.2664C30.6323 71.2664 31.1615 70.6785 31.7494 70.0905C31.7494 69.532 31.6906 69.1792 31.6906 68.8558C31.6906 68.6989 31.7219 68.5435 31.7829 68.3989C31.8438 68.2543 31.933 68.1233 32.0454 68.0137C32.1577 67.9042 32.2908 67.8182 32.4369 67.7608C32.583 67.7035 32.7391 67.676 32.8959 67.6799C33.0599 67.6724 33.2235 67.7004 33.3756 67.7617C33.5278 67.8231 33.665 67.9165 33.7779 68.0356C33.8855 68.1487 33.9695 68.282 34.025 68.4279C34.0805 68.5738 34.1064 68.7292 34.1013 68.8852C34.0599 69.6798 34.2867 70.4653 34.7451 71.1157C35.2036 71.766 35.8672 72.2436 36.6295 72.4718C36.8804 72.5284 37.1366 72.558 37.3938 72.5599C38.5919 72.4382 39.7223 71.946 40.6276 71.1518C40.7817 71.04 40.9664 70.9784 41.1568 70.9754C41.3099 70.982 41.4592 71.0252 41.5922 71.1014C41.7252 71.1776 41.838 71.2846 41.9211 71.4134C42.0179 71.5646 42.0789 71.7359 42.0993 71.9143C42.1197 72.0926 42.0989 72.2733 42.0387 72.4424V72.4424Z" fill="#528693"/>
<path d="M41.7598 72.3188C41.1308 73.3178 40.1756 74.0684 39.0563 74.4435C37.937 74.8186 36.7224 74.795 35.6185 74.3767C34.3968 73.9358 33.3832 73.0553 32.7758 71.9072C32.3744 72.4043 31.8593 72.7974 31.2739 73.0533C30.6885 73.3091 30.0501 73.4202 29.4126 73.3771C28.4682 73.2588 27.5961 72.8102 26.9505 72.1108C26.3049 71.4114 25.9274 70.5063 25.8849 69.5554C25.8232 68.5059 27.5841 68.259 27.737 69.3085C27.7548 69.8714 27.9782 70.4083 28.365 70.8178C28.7517 71.2272 29.275 71.4809 29.836 71.5309C30.8531 71.5309 31.4734 70.7578 32.1202 70.0787C32.0387 69.6715 31.9876 69.2588 31.9673 68.844C31.9805 68.6116 32.0821 68.3931 32.2513 68.2333C32.4205 68.0734 32.6444 67.9844 32.8772 67.9844C33.1099 67.9844 33.3339 68.0734 33.503 68.2333C33.6722 68.3931 33.7738 68.6116 33.787 68.844C33.7437 69.7064 33.991 70.5584 34.4894 71.2636C34.9878 71.9687 35.7083 72.4863 36.5358 72.7333C37.3023 72.846 38.0845 72.7822 38.8227 72.5468C39.5609 72.3114 40.2356 71.9107 40.7955 71.3751C41.4217 70.9636 42.0067 71.7661 41.7598 72.3188Z" fill="#528693"/>
</svg>
