<svg width="1940" height="430" viewBox="0 0 1940 430" fill="none" xmlns="http://www.w3.org/2000/svg">
<path d="M632.329 299.941C616.41 299.941 601.875 296.765 588.898 290.412C575.92 284.059 564.846 275.588 555.502 265C546.159 254.412 539.064 242.235 533.873 228.824C528.682 215.412 526.26 201.647 526.26 187.353C526.26 172.529 529.028 158.412 534.392 145C539.756 131.588 547.197 119.588 556.714 109C566.23 98.4117 577.477 90.1176 590.455 83.9411C603.432 77.7647 617.621 74.7646 633.194 74.7646C648.94 74.7646 663.302 77.9411 676.279 84.4705C689.257 90.9999 700.331 99.647 709.501 110.412C718.672 121.176 725.94 133.353 730.958 146.765C736.148 160.176 738.571 173.941 738.571 188.059C738.571 202.706 735.975 216.647 730.611 230.059C725.247 243.471 717.807 255.471 708.29 266.059C698.773 276.647 687.526 284.941 674.549 290.941C661.744 296.941 647.556 299.941 632.329 299.941ZM632.675 261.824C642.884 261.824 652.055 259.706 660.014 255.471C667.974 251.235 674.549 245.412 679.913 238.353C685.277 231.118 689.257 223.176 692.025 214.353C694.794 205.529 696.178 196.529 696.178 187.529C696.178 178 694.621 168.647 691.679 159.647C688.737 150.647 684.585 142.706 679.048 135.824C673.684 128.941 666.935 123.471 659.149 119.235C651.189 115 642.365 113.059 632.675 113.059C622.293 113.059 613.122 115.176 605.163 119.412C597.203 123.647 590.628 129.471 585.437 136.529C580.073 143.765 576.093 151.706 573.325 160.529C570.556 169.353 569.172 178.176 569.172 187.353C569.172 196.882 570.556 206.235 573.498 215.235C576.439 224.235 580.419 232.176 585.956 239.059C591.32 245.941 598.068 251.412 605.855 255.647C613.641 259.706 622.639 261.824 632.675 261.824ZM633.367 216.118H667.108C667.801 216.118 668.32 216.471 668.839 216.824L736.495 294.471C737.879 296.059 736.841 298.353 734.764 298.353H701.023C700.331 298.353 699.812 298 699.292 297.647L631.637 220C630.426 218.412 631.464 216.118 633.367 216.118Z" fill="#404040"/>
<path d="M876.132 296.059V273.647C876.132 272.765 874.92 272.412 874.574 273.118C870.941 278.765 866.615 283.706 861.251 287.588C855.195 292.176 848.446 295.706 841.179 298C833.739 300.294 826.298 301.353 818.512 301.353C808.822 301.353 800.689 299.941 793.768 296.941C786.847 293.941 781.31 289.706 777.157 284.059C773.004 278.412 769.889 271.706 768.159 263.765C766.256 255.823 765.391 247 765.391 237.647V138.294C765.391 137.059 766.429 136 767.64 136H804.15C805.361 136 806.399 137.059 806.399 138.294V228.294C806.399 235.529 807.265 241.882 808.822 247.529C810.379 253.176 813.321 257.588 817.473 260.765C821.626 263.941 827.163 265.529 834.258 265.529C839.449 265.529 844.467 264.47 849.658 262.176C854.849 259.882 859.52 256.529 863.846 252.294C867.999 248.059 871.46 242.941 874.401 236.941C874.574 236.588 874.574 236.235 874.574 235.882V138.294C874.574 137.059 875.612 136 876.824 136H913.334C914.545 136 915.583 137.059 915.583 138.294V295.882C915.583 297.118 914.545 298.176 913.334 298.176H878.381C877.17 298.353 876.132 297.294 876.132 296.059Z" fill="#404040"/>
<path d="M953.125 109.353V72.2941C953.125 71.0588 954.163 70 955.374 70H991.884C993.096 70 994.134 71.0588 994.134 72.2941V109.176C994.134 110.412 993.096 111.471 991.884 111.471H955.374C954.163 111.647 953.125 110.588 953.125 109.353ZM953.125 296.059V136.706C953.125 135.471 954.163 134.412 955.374 134.412H991.884C993.096 134.412 994.134 135.471 994.134 136.706V295.882C994.134 297.118 993.096 298.176 991.884 298.176H955.374C954.163 298.353 953.125 297.294 953.125 296.059Z" fill="#404040"/>
<path d="M1106.09 301.529C1092.94 301.529 1081.18 299.235 1070.79 294.823C1060.41 290.412 1051.41 284.235 1044.15 276.294C1036.71 268.353 1031.17 259.353 1027.19 249.294C1023.21 239.235 1021.13 228.647 1021.13 217.353C1021.13 202.176 1024.59 188.059 1031.34 175.529C1038.26 162.823 1047.95 152.765 1060.58 145C1073.22 137.412 1088.27 133.529 1105.75 133.529C1123.05 133.529 1138.1 137.412 1150.56 145.176C1162.15 152.412 1171.15 161.588 1177.21 173.059C1177.9 174.294 1177.21 175.882 1175.82 176.412L1140.01 187.529C1138.97 187.882 1137.93 187.353 1137.41 186.471C1134.12 181.176 1129.8 177.118 1124.61 174.118C1118.9 170.941 1112.49 169.353 1105.57 169.353C1097.79 169.353 1090.69 171.294 1084.29 175.353C1077.89 179.412 1072.87 184.882 1069.06 192.294C1065.26 199.706 1063.53 208 1063.53 217.529C1063.53 226.882 1065.43 235.353 1069.24 242.588C1073.04 249.823 1078.06 255.647 1084.46 259.706C1090.87 263.941 1097.79 266.059 1105.57 266.059C1110.42 266.059 1115.09 265.176 1119.59 263.588C1123.91 262 1127.89 259.706 1131.35 256.706C1134.3 254.235 1136.55 251.412 1138.28 248.412C1138.8 247.529 1139.83 247 1140.87 247.353L1176.69 258.471C1178.07 258.823 1178.77 260.588 1178.07 261.823C1174.44 268.882 1169.42 275.412 1163.19 281.235C1156.1 287.765 1147.79 292.706 1138.28 296.412C1128.76 300.118 1118.03 301.529 1106.09 301.529Z" fill="#404040"/>
<path d="M1313.39 297.294L1268.74 230.412C1267.88 229.176 1266.32 229 1265.28 230.059L1246.08 249.118C1245.56 249.471 1245.38 250.176 1245.38 250.706V295.882C1245.38 297.118 1244.35 298.176 1243.13 298.176H1206.62C1205.41 298.176 1204.38 297.118 1204.38 295.882V72.2941C1204.38 71.0588 1205.41 70 1206.62 70H1243.13C1244.35 70 1245.38 71.0588 1245.38 72.2941V206.588C1245.38 207.471 1246.42 207.824 1246.94 207.118L1309.41 136.706C1309.93 136.176 1310.44 136 1311.14 136H1348.51C1350.41 136 1351.45 138.294 1350.24 139.882L1295.04 203.588C1294.35 204.471 1294.35 205.529 1294.87 206.412L1355.43 294.647C1356.47 296.235 1355.43 298.353 1353.53 298.353H1315.29C1314.6 298.353 1313.73 298 1313.39 297.294Z" fill="#404040"/>
<path d="M1471.7 301.529C1459.25 301.529 1448.17 298.706 1438.65 293.059C1430 287.941 1423.26 281.235 1418.06 272.765C1417.54 272.059 1416.51 272.412 1416.51 273.294V362.765C1416.51 364 1415.47 365.059 1414.26 365.059H1377.75C1376.54 365.059 1375.5 364 1375.5 362.765V138.294C1375.5 137.059 1376.54 136 1377.75 136H1409.07C1410.28 136 1411.32 137.059 1411.32 138.294V159.823C1411.32 161.059 1412.87 161.588 1413.74 160.706C1419.45 152.765 1426.37 146.588 1434.68 141.823C1444.02 136.353 1454.75 133.706 1466.86 133.706C1477.76 133.706 1487.62 135.823 1496.79 140.235C1505.96 144.647 1513.75 150.647 1520.5 158.412C1527.25 166.176 1532.44 175 1536.25 185.059C1540.05 195.118 1541.96 205.882 1541.96 217.353C1541.96 233.059 1539.01 247.176 1532.96 260.059C1526.9 272.765 1518.6 283 1508.04 290.588C1497.49 297.647 1485.37 301.529 1471.7 301.529ZM1457.86 265.882C1464.26 265.882 1469.97 264.47 1474.99 261.823C1480.18 259.176 1484.51 255.47 1488.32 250.882C1492.12 246.294 1494.89 241 1496.97 235.176C1498.87 229.353 1499.91 223.176 1499.91 217C1499.91 210.294 1498.87 203.941 1496.62 198.294C1494.37 192.647 1491.43 187.529 1487.28 183.118C1483.12 178.706 1478.45 175.353 1473.09 172.882C1467.72 170.412 1461.84 169.176 1455.44 169.176C1451.63 169.176 1447.65 169.882 1443.67 171.118C1439.69 172.353 1435.89 174.294 1432.25 176.765C1428.62 179.235 1425.33 182.059 1422.56 185.235C1419.97 188.412 1417.89 191.765 1416.68 195.47C1416.68 195.647 1416.51 196 1416.51 196.353V233.412C1416.51 233.765 1416.51 234.118 1416.68 234.294C1419.1 239.941 1422.39 245.235 1426.37 250C1430.52 254.941 1435.37 258.647 1440.9 261.47C1446.61 264.47 1452.15 265.882 1457.86 265.882Z" fill="#404040"/>
<path d="M1636.09 301.529C1625.01 301.529 1614.81 299.412 1605.63 295C1596.29 290.588 1588.33 284.765 1581.41 277C1574.49 269.412 1569.3 260.412 1565.66 250.176C1562.03 239.941 1560.13 229 1560.13 217.176C1560.13 205.353 1562.03 194.588 1565.66 184.353C1569.3 174.118 1574.49 165.294 1580.89 157.529C1587.29 149.765 1594.91 143.765 1603.73 139.529C1612.56 135.294 1622.07 133.176 1632.28 133.176C1644.39 133.176 1655.12 136 1664.64 141.823C1673.12 146.941 1680.04 153.647 1684.88 161.941C1685.4 162.647 1686.44 162.294 1686.44 161.412V138.294C1686.44 137.059 1687.48 136 1688.69 136H1725.2C1726.41 136 1727.45 137.059 1727.45 138.294V295.882C1727.45 297.118 1726.41 298.176 1725.2 298.176H1688.69C1687.48 298.176 1686.44 297.118 1686.44 295.882V275.059C1686.44 274.176 1685.23 273.824 1684.88 274.529C1680.04 282.294 1673.81 288.647 1666.2 293.235C1657.72 298.882 1647.68 301.529 1636.09 301.529ZM1686.44 201.118C1686.44 200.765 1686.44 200.588 1686.27 200.235C1684.02 194.235 1680.73 188.941 1676.58 184.353C1672.25 179.588 1667.41 175.882 1662.04 173.235C1656.68 170.588 1650.97 169.176 1645.09 169.176C1639.03 169.176 1633.32 170.588 1628.13 173.235C1622.94 175.882 1618.44 179.588 1614.63 184.353C1610.83 189.118 1607.88 194.412 1605.81 200.235C1603.73 206.059 1602.69 212.235 1602.69 218.412C1602.69 227.235 1604.6 235.176 1608.4 242.412C1612.21 249.647 1617.4 255.294 1623.98 259.529C1630.55 263.765 1638.16 265.882 1646.47 265.882C1652.53 265.882 1658.24 264.824 1663.25 262.529C1668.27 260.235 1672.77 257.235 1676.58 253C1680.38 249.118 1683.5 244.529 1686.09 239.412C1686.27 239.059 1686.44 238.706 1686.44 238.353V201.118Z" fill="#404040"/>
<path d="M1767.94 333.118C1767.94 331.706 1769.32 330.471 1770.71 330.824C1773.3 331.353 1775.9 331.882 1778.15 332.412C1781.26 333.118 1784.03 333.294 1786.28 333.294C1790.09 333.294 1793.37 332.235 1795.97 330.294C1798.56 328.353 1800.99 324.824 1803.41 319.706C1805.83 314.765 1808.25 308.059 1810.85 299.412C1811.02 298.882 1811.02 298.353 1810.85 297.824L1748.9 139C1748.39 137.412 1749.42 135.824 1750.98 135.824H1788.7C1789.74 135.824 1790.43 136.353 1790.78 137.412L1832.31 253C1832.65 254.059 1834.21 254.059 1834.56 253L1871.07 137.588C1871.41 136.706 1872.28 136 1873.32 136H1907.75C1909.31 136 1910.34 137.588 1909.82 139.176L1843.38 331.176C1840.96 338.412 1837.15 344.941 1832.13 350.941C1827.12 356.765 1820.89 361.529 1813.45 364.882C1806.01 368.235 1797.7 370 1788.53 370C1785.24 370 1781.95 369.824 1778.67 369.294C1775.9 368.765 1772.78 368.059 1769.5 367.176C1768.46 366.824 1767.94 365.941 1767.94 364.882V333.118Z" fill="#404040"/>
<path d="M158.043 176.765H270.86C272.244 176.765 273.282 177.823 273.282 179.235V187.353C273.282 227.941 255.633 264.471 227.948 289.353C226.564 290.588 226.91 292.882 228.64 293.588C240.406 297.823 252.864 300.118 265.669 300.118C326.576 300.118 376.064 249.647 376.064 187.529C376.064 125.412 326.576 74.9409 265.669 74.9409C202.685 74.7644 161.503 124.529 155.966 174.294C155.793 175.529 156.831 176.765 158.043 176.765Z" fill="#1338FF"/>
<path d="M247.502 197.765H134.858C133.647 197.765 132.781 196.882 132.781 195.647V187.353C132.781 146.765 150.431 110.235 178.116 85.3531C179.5 84.1178 179.154 81.8237 177.424 81.1178C165.658 76.8825 153.199 74.5884 140.395 74.5884C79.4873 74.7648 30 125.235 30 187.353C30 249.471 79.4873 299.941 140.395 299.941C204.244 299.941 244.214 250.176 249.925 200.412C250.098 199 249.059 197.765 247.502 197.765Z" fill="#1338FF"/>
</svg>
