<svg width="15" height="15" viewBox="0 0 12 13" fill="none" xmlns="http://www.w3.org/2000/svg">
<path d="M11.4033 11.2273L8.96475 8.78927C8.84486 8.66985 8.68253 8.6028 8.5133 8.6028C8.34407 8.6028 8.18173 8.66985 8.06184 8.78927C7.41927 9.41044 6.58876 9.80096 5.70041 9.89964C4.81207 9.99832 3.91607 9.7996 3.15279 9.33459C2.38952 8.86959 1.80208 8.16458 1.48252 7.33001C1.16296 6.49544 1.12932 5.57846 1.38688 4.72273C1.64443 3.867 2.17863 3.12086 2.90579 2.6012C3.63294 2.08154 4.51197 1.81773 5.40516 1.85108C6.29836 1.88444 7.15525 2.21308 7.8416 2.78553C8.52796 3.35797 9.005 4.14187 9.19798 5.01443C9.33627 5.64745 9.32203 6.30428 9.15642 6.93071C9.13686 7.00408 9.13195 7.08059 9.14196 7.15586C9.15197 7.23113 9.17671 7.30369 9.21478 7.3694C9.25284 7.43511 9.30347 7.49268 9.36379 7.53883C9.4241 7.58497 9.49292 7.61879 9.56631 7.63835C9.71452 7.67784 9.87235 7.65685 10.0051 7.58C10.1378 7.50315 10.2346 7.37672 10.2741 7.22854C10.5922 6.03301 10.474 4.76326 9.94055 3.64701C9.40711 2.53075 8.49336 1.64101 7.36318 1.13734C6.233 0.633672 4.96032 0.549027 3.77337 0.898584C2.58642 1.24814 1.56285 2.00903 0.886219 3.04481C0.209588 4.08058 -0.0758406 5.32348 0.0811204 6.55061C0.238081 7.77774 0.827164 8.90883 1.74273 9.74103C2.65829 10.5732 3.84044 11.0521 5.07717 11.0918C6.31391 11.1314 7.52433 10.7293 8.49136 9.9575L10.5858 12.0492C10.6395 12.103 10.7032 12.1456 10.7733 12.1747C10.8434 12.2038 10.9186 12.2188 10.9946 12.2188C11.0705 12.2188 11.1457 12.2038 11.2158 12.1747C11.286 12.1456 11.3497 12.103 11.4033 12.0492C11.4578 11.9955 11.501 11.9316 11.5305 11.861C11.56 11.7905 11.5752 11.7148 11.5752 11.6383C11.5752 11.5618 11.56 11.4861 11.5305 11.4156C11.501 11.345 11.4578 11.281 11.4033 11.2273V11.2273Z" fill="#000"/>
<path d="M6.98252 7.62354C6.89028 7.53786 6.77219 7.48525 6.64679 7.47397C6.5214 7.46268 6.39581 7.49337 6.28975 7.5612C5.99037 7.74589 5.64693 7.84695 5.29521 7.85386C4.9435 7.86076 4.59636 7.77325 4.28996 7.60045C4.18609 7.53985 4.06537 7.51452 3.9459 7.52826C3.82642 7.54199 3.71461 7.59405 3.62721 7.67664L3.59257 7.70896C3.53055 7.76803 3.48301 7.84062 3.45365 7.92107C3.42428 8.00152 3.41389 8.08766 3.42327 8.17278C3.43266 8.25791 3.46157 8.33972 3.50776 8.41184C3.55394 8.48396 3.61616 8.54445 3.68956 8.5886C4.18324 8.87318 4.74527 9.01756 5.31502 9.00617C5.88476 8.99478 6.44057 8.82804 6.92248 8.52396C6.99289 8.47923 7.05234 8.41925 7.09644 8.34845C7.14054 8.27766 7.16815 8.19786 7.17724 8.11495C7.18633 8.03205 7.17667 7.94816 7.14896 7.86949C7.12125 7.79082 7.0762 7.71939 7.01716 7.66048L6.98252 7.62354Z" fill="#0E0E0E"/>
</svg>
