<svg width="16" height="15" viewBox="0 0 16 15" fill="none" xmlns="http://www.w3.org/2000/svg">
<g clip-path="url(#clip0_310_2573)">
<path d="M14.9158 3.405L13.1338 0.831C12.9558 0.574831 12.7186 0.365481 12.4423 0.220788C12.1659 0.0760947 11.8587 0.000347282 11.5468 0L3.96881 0C3.65689 0.000347282 3.34968 0.0760947 3.07336 0.220788C2.79703 0.365481 2.55978 0.574831 2.38181 0.831L0.599813 3.405C0.377579 3.72696 0.258321 4.10879 0.257812 4.5L0.257813 13.068C0.257813 13.5804 0.461362 14.0718 0.823682 14.4341C1.186 14.7965 1.67741 15 2.18981 15H13.3258C13.8382 15 14.3296 14.7965 14.6919 14.4341C15.0543 14.0718 15.2578 13.5804 15.2578 13.068V4.5C15.2573 4.10879 15.138 3.72696 14.9158 3.405ZM11.5468 1.5C11.6165 1.49993 11.6851 1.51682 11.7468 1.54923C11.8085 1.58164 11.8613 1.62858 11.9008 1.686L13.0168 3.3H8.51681V1.5H11.5468ZM3.61481 1.686C3.65428 1.62858 3.70714 1.58164 3.76882 1.54923C3.83049 1.51682 3.89914 1.49993 3.96881 1.5H7.00781V3.3H2.50781L3.61481 1.686ZM13.7578 13.068C13.7582 13.1248 13.7473 13.1812 13.7257 13.2338C13.7042 13.2864 13.6724 13.3342 13.6322 13.3744C13.592 13.4146 13.5442 13.4464 13.4916 13.4679C13.439 13.4895 13.3827 13.5004 13.3258 13.5H2.18981C2.13297 13.5004 2.07662 13.4895 2.02402 13.4679C1.97143 13.4464 1.92365 13.4146 1.88345 13.3744C1.84326 13.3342 1.81145 13.2864 1.78988 13.2338C1.76832 13.1812 1.75741 13.1248 1.75781 13.068V5.175C1.75781 5.07554 1.79732 4.98016 1.86765 4.90983C1.93797 4.83951 2.03336 4.8 2.13281 4.8H13.3828C13.4823 4.8 13.5777 4.83951 13.648 4.90983C13.7183 4.98016 13.7578 5.07554 13.7578 5.175V13.068Z" fill="#080708"/>
<path d="M10.0078 6.2998H5.50781C5.0936 6.2998 4.75781 6.63559 4.75781 7.0498C4.75781 7.46402 5.0936 7.7998 5.50781 7.7998H10.0078C10.422 7.7998 10.7578 7.46402 10.7578 7.0498C10.7578 6.63559 10.422 6.2998 10.0078 6.2998Z" fill="#080708"/>
</g>
<defs>
<clipPath id="clip0_310_2573">
<rect width="15" height="15" fill="white" transform="translate(0.257812)"/>
</clipPath>
</defs>
</svg>
