<svg width="25" height="25" viewBox="0 0 25 25" fill="none" xmlns="http://www.w3.org/2000/svg">
<path d="M20.9168 18.4151L20.4552 16.2262C20.3354 15.65 20.0993 15.1044 19.7613 14.6226C19.4234 14.1408 18.9908 13.733 18.4899 13.4242L15.7167 11.7076C16.1474 11.1329 16.4152 10.4527 16.492 9.73863L16.712 7.66506C16.7717 7.10547 16.713 6.53959 16.5398 6.00415C16.3666 5.4687 16.0827 4.97567 15.7066 4.55705C15.3305 4.13843 14.8705 3.80359 14.3566 3.57425C13.8427 3.3449 13.2863 3.2262 12.7236 3.22583H12.28C11.7169 3.22569 11.1601 3.34403 10.6458 3.57314C10.1314 3.80226 9.67106 4.13704 9.29456 4.55571C8.91806 4.97439 8.63386 5.4676 8.46043 6.00329C8.28701 6.53898 8.22823 7.10517 8.28793 7.66506L8.51151 9.73863C8.5883 10.4527 8.85614 11.1329 9.28685 11.7076L6.51007 13.4242C6.00917 13.733 5.57653 14.1408 5.2386 14.6226C4.90067 15.1044 4.66456 15.65 4.54469 16.2262L4.0831 18.4151C4.01062 18.7582 4.01564 19.113 4.09781 19.4539C4.17997 19.7947 4.3372 20.1129 4.55802 20.3852C4.77885 20.6575 5.05768 20.8771 5.37419 21.0279C5.69069 21.1787 6.03687 21.2569 6.38746 21.2568H18.6125C18.9631 21.2569 19.3092 21.1787 19.6258 21.0279C19.9423 20.8771 20.2211 20.6575 20.4419 20.3852C20.6627 20.1129 20.82 19.7947 20.9021 19.4539C20.9843 19.113 20.9893 18.7582 20.9168 18.4151ZM10.6356 5.75017C10.8431 5.52052 11.097 5.3375 11.3804 5.21317C11.6639 5.08885 11.9705 5.02605 12.28 5.02893H12.7236C13.0336 5.02864 13.3403 5.0937 13.6235 5.21986C13.9068 5.34601 14.1603 5.53045 14.3675 5.76113C14.5747 5.99181 14.731 6.26357 14.8261 6.55869C14.9213 6.85381 14.9532 7.16566 14.9197 7.47393L14.6997 9.54389C14.6415 10.0862 14.3849 10.5879 13.9792 10.9524C13.5734 11.3169 13.0472 11.5186 12.5018 11.5186C11.9563 11.5186 11.4301 11.3169 11.0244 10.9524C10.6186 10.5879 10.362 10.0862 10.3038 9.54389L10.0838 7.47393C10.0459 7.16381 10.0755 6.84915 10.1708 6.55159C10.266 6.25403 10.4246 5.98062 10.6356 5.75017ZM19.0416 19.2374C18.9909 19.3025 18.9257 19.3549 18.8512 19.3906C18.7768 19.4263 18.695 19.4442 18.6125 19.4429H6.38746C6.30491 19.4442 6.22318 19.4263 6.14872 19.3906C6.07425 19.3549 6.00908 19.3025 5.95832 19.2374C5.90594 19.1759 5.86779 19.1036 5.84659 19.0257C5.8254 18.9478 5.82168 18.8661 5.83571 18.7866L6.29731 16.5976C6.37041 16.2605 6.51097 15.9417 6.71053 15.6603C6.91009 15.3789 7.16452 15.1409 7.4585 14.9604L10.751 12.9193C11.2957 13.1851 11.8938 13.3232 12.5 13.3232C13.1061 13.3232 13.7042 13.1851 14.249 12.9193L17.5414 14.9604C17.8334 15.1419 18.0858 15.3805 18.2834 15.6618C18.4811 15.9431 18.62 16.2614 18.6918 16.5976L19.1534 18.7866C19.1706 18.867 19.1694 18.9502 19.1501 19.0301C19.1307 19.11 19.0937 19.1845 19.0416 19.2482V19.2374Z" fill="#0E0E0E"/>
<path d="M15.9261 16.2083H14.123C13.6251 16.2083 13.2214 16.6119 13.2214 17.1098C13.2214 17.6077 13.6251 18.0114 14.123 18.0114H15.9261C16.424 18.0114 16.8276 17.6077 16.8276 17.1098C16.8276 16.6119 16.424 16.2083 15.9261 16.2083Z" fill="#0E0E0E"/>
</svg>
