<svg width="25" height="25" viewBox="0 0 17 18" fill="none" xmlns="http://www.w3.org/2000/svg">
<path d="M14.7801 4.03594H9.14862C8.92259 4.03594 8.70583 4.12515 8.546 4.28395C8.38618 4.44275 8.29639 4.65813 8.29639 4.88271C8.29639 5.10729 8.38618 5.32267 8.546 5.48147C8.70583 5.64027 8.92259 5.72949 9.14862 5.72949H14.7801C14.8508 5.72887 14.9208 5.74376 14.985 5.77308C15.0493 5.80241 15.1062 5.84546 15.1518 5.89915C15.1974 5.95285 15.2305 6.01587 15.2487 6.08373C15.267 6.15159 15.2699 6.22262 15.2574 6.29175L13.9654 12.4461C13.9461 12.5571 13.888 12.6577 13.8013 12.7302C13.7146 12.8027 13.6049 12.8424 13.4916 12.8424H7.96914C7.85581 12.8424 7.74611 12.8027 7.65941 12.7302C7.57271 12.6577 7.51459 12.5571 7.4953 12.4461L5.61017 1.66497C5.57219 1.47369 5.46843 1.30149 5.31667 1.1779C5.16491 1.0543 4.97461 0.98701 4.77839 0.987552H0.885413C0.755551 0.98765 0.627429 1.01723 0.510832 1.07405C0.394235 1.13086 0.292247 1.21339 0.212656 1.31535C0.133065 1.4173 0.077977 1.53598 0.051599 1.66233C0.0252209 1.78867 0.0282504 1.91933 0.0604562 2.04433C0.112256 2.23143 0.225724 2.39585 0.382702 2.5113C0.539681 2.62675 0.731097 2.68653 0.92632 2.6811H4.08297L5.82834 12.734C5.91618 13.236 6.17864 13.6913 6.56989 14.0207C6.96115 14.35 7.45637 14.5324 7.96914 14.5359H13.4916C14.0067 14.5355 14.5051 14.3546 14.8992 14.025C15.2933 13.6954 15.5577 13.2383 15.646 12.734L16.938 6.57626C16.9916 6.26421 16.976 5.94429 16.8922 5.63886C16.8085 5.33343 16.6586 5.04985 16.4531 4.80793C16.2476 4.56601 15.9914 4.37159 15.7025 4.23825C15.4135 4.10491 15.0987 4.03587 14.7801 4.03594Z" fill="#0E0E0E"/>
<path d="M12.4339 8.77778C12.66 8.77778 12.8767 8.68857 13.0365 8.52976C13.1964 8.37096 13.2862 8.15558 13.2862 7.931C13.2862 7.70642 13.1964 7.49104 13.0365 7.33224C12.8767 7.17344 12.66 7.08423 12.4339 7.08423H9.7068C9.48077 7.08423 9.264 7.17344 9.10418 7.33224C8.94436 7.49104 8.85457 7.70642 8.85457 7.931C8.85457 8.15558 8.94436 8.37096 9.10418 8.52976C9.264 8.68857 9.48077 8.77778 9.7068 8.77778H12.4339Z" fill="#0E0E0E"/>
<path d="M8.34329 17.923C9.00223 17.923 9.53641 17.3922 9.53641 16.7375C9.53641 16.0828 9.00223 15.552 8.34329 15.552C7.68435 15.552 7.15017 16.0828 7.15017 16.7375C7.15017 17.3922 7.68435 17.923 8.34329 17.923Z" fill="#BEE1E6"/>
<path d="M13.1158 17.923C13.7747 17.923 14.3089 17.3922 14.3089 16.7375C14.3089 16.0828 13.7747 15.552 13.1158 15.552C12.4568 15.552 11.9227 16.0828 11.9227 16.7375C11.9227 17.3922 12.4568 17.923 13.1158 17.923Z" fill="#BEE1E6"/>
<path d="M12.6045 10.6407C12.6045 10.4161 12.5147 10.2008 12.3549 10.042C12.1951 9.88316 11.9783 9.79395 11.7523 9.79395H10.0478C9.82182 9.79395 9.60505 9.88316 9.44523 10.042C9.28541 10.2008 9.19562 10.4161 9.19562 10.6407C9.19562 10.8653 9.28541 11.0807 9.44523 11.2395C9.60505 11.3983 9.82182 11.4875 10.0478 11.4875H11.7523C11.9783 11.4875 12.1951 11.3983 12.3549 11.2395C12.5147 11.0807 12.6045 10.8653 12.6045 10.6407Z" fill="#BEE1E6"/>
</svg>
