<svg width="19" height="16" viewBox="0 0 19 16" fill="none" xmlns="http://www.w3.org/2000/svg">
<path d="M15.0063 4.57127H17.6C17.8457 4.57127 18.0813 4.47093 18.255 4.29232C18.4287 4.11371 18.5263 3.87147 18.5263 3.61888C18.5263 3.3663 18.4287 3.12406 18.255 2.94545C18.0813 2.76684 17.8457 2.6665 17.6 2.6665H15.0063C14.7606 2.6665 14.525 2.76684 14.3513 2.94545C14.1776 3.12406 14.08 3.3663 14.08 3.61888C14.08 3.87147 14.1776 4.11371 14.3513 4.29232C14.525 4.47093 14.7606 4.57127 15.0063 4.57127ZM5.74316 2.6665H0.926316C0.680642 2.6665 0.44503 2.76684 0.271312 2.94545C0.0975937 3.12406 0 3.3663 0 3.61888C0 3.87147 0.0975937 4.11371 0.271312 4.29232C0.44503 4.47093 0.680642 4.57127 0.926316 4.57127H5.74316C5.98883 4.57127 6.22444 4.47093 6.39816 4.29232C6.57188 4.11371 6.66947 3.87147 6.66947 3.61888C6.66947 3.3663 6.57188 3.12406 6.39816 2.94545C6.22444 2.76684 5.98883 2.6665 5.74316 2.6665ZM3.52 11.4284H0.926316C0.680642 11.4284 0.44503 11.5287 0.271312 11.7074C0.0975937 11.886 0 12.1282 0 12.3808C0 12.6334 0.0975937 12.8756 0.271312 13.0542C0.44503 13.2328 0.680642 13.3332 0.926316 13.3332H3.52C3.76567 13.3332 4.00129 13.2328 4.175 13.0542C4.34872 12.8756 4.44632 12.6334 4.44632 12.3808C4.44632 12.1282 4.34872 11.886 4.175 11.7074C4.00129 11.5287 3.76567 11.4284 3.52 11.4284ZM17.6 11.4284H12.7832C12.5375 11.4284 12.3019 11.5287 12.1282 11.7074C11.9544 11.886 11.8568 12.1282 11.8568 12.3808C11.8568 12.6334 11.9544 12.8756 12.1282 13.0542C12.3019 13.2328 12.5375 13.3332 12.7832 13.3332H17.6C17.8457 13.3332 18.0813 13.2328 18.255 13.0542C18.4287 12.8756 18.5263 12.6334 18.5263 12.3808C18.5263 12.1282 18.4287 11.886 18.255 11.7074C18.0813 11.5287 17.8457 11.4284 17.6 11.4284Z" fill="#080708"/>
<path d="M6.85399 8.7619C6.1578 8.7619 5.47724 8.97416 4.89838 9.37182C4.31952 9.76949 3.86835 10.3347 3.60193 10.996C3.33551 11.6573 3.2658 12.385 3.40162 13.087C3.53744 13.789 3.87269 14.4339 4.36497 14.94C4.85725 15.4461 5.48446 15.7908 6.16727 15.9305C6.85008 16.0701 7.55784 15.9984 8.20103 15.7245C8.84423 15.4506 9.39398 14.9867 9.78076 14.3916C10.1675 13.7964 10.374 13.0967 10.374 12.381C10.374 11.4211 10.0031 10.5006 9.343 9.8219C8.68287 9.1432 7.78755 8.7619 6.85399 8.7619ZM6.85399 14.0952C6.52421 14.0952 6.20184 13.9947 5.92765 13.8063C5.65345 13.618 5.43974 13.3502 5.31354 13.037C5.18734 12.7237 5.15432 12.3791 5.21866 12.0465C5.28299 11.714 5.44179 11.4085 5.67498 11.1688C5.90816 10.929 6.20526 10.7658 6.5287 10.6996C6.85214 10.6335 7.18739 10.6674 7.49206 10.7972C7.79673 10.9269 8.05714 11.1466 8.24035 11.4285C8.42356 11.7105 8.52135 12.0419 8.52135 12.381C8.52038 12.8353 8.34439 13.2708 8.03191 13.592C7.71943 13.9133 7.2959 14.0942 6.85399 14.0952ZM11.6708 0C10.9746 0 10.2941 0.212253 9.71522 0.609919C9.13636 1.00759 8.68519 1.5728 8.41877 2.2341C8.15235 2.89539 8.08264 3.62306 8.21846 4.32509C8.35428 5.02712 8.68953 5.67197 9.18181 6.1781C9.67409 6.68423 10.3013 7.02891 10.9841 7.16856C11.6669 7.3082 12.3747 7.23653 13.0179 6.96261C13.6611 6.68869 14.2108 6.22483 14.5976 5.62968C14.9844 5.03453 15.1908 4.33483 15.1908 3.61905C15.1908 3.14379 15.0998 2.67318 14.9229 2.2341C14.746 1.79501 14.4867 1.39605 14.1598 1.05999C13.833 0.723935 13.4449 0.457358 13.0179 0.275484C12.5908 0.0936094 12.1331 0 11.6708 0V0ZM11.6708 5.33333C11.3411 5.33333 11.0187 5.23279 10.7445 5.04442C10.4703 4.85606 10.2566 4.58832 10.1304 4.27508C10.0042 3.96183 9.97116 3.61715 10.0355 3.28461C10.0998 2.95207 10.2586 2.64661 10.4918 2.40686C10.725 2.16712 11.0221 2.00385 11.3455 1.9377C11.669 1.87156 12.0042 1.9055 12.3089 2.03525C12.6136 2.165 12.874 2.38473 13.0572 2.66664C13.2404 2.94855 13.3382 3.27999 13.3382 3.61905C13.3372 4.0734 13.1612 4.50885 12.8488 4.83012C12.5363 5.15139 12.1127 5.33233 11.6708 5.33333Z" fill="#F6CACA"/>
</svg>
