<svg width="114" height="20" viewBox="0 0 114 20" fill="none" xmlns="http://www.w3.org/2000/svg">
<path d="M13.3696 0.955322V4.67921H4.51971V8.78364H12.9325V12.5075H4.51971V19.9553H0.258667V0.955322H13.3696ZM37.8161 7.26146C37.8161 10.3058 36.6143 12.2629 34.1833 13.1599L39.018 19.9553H33.7736L29.5399 13.8938H26.5899V19.9553H22.3289V0.955322H29.5672C32.5445 0.955322 34.6477 1.44459 35.9314 2.45032C37.1879 3.45604 37.8161 5.05975 37.8161 7.26146ZM29.7038 10.2243C31.1514 10.2243 32.1621 9.97964 32.681 9.51755C33.2 9.05546 33.4732 8.29437 33.4732 7.26146C33.4732 6.25574 33.2 5.54903 32.6537 5.16848C32.1074 4.78794 31.1514 4.59766 29.7857 4.59766H26.5899V10.2243H29.7038ZM60.8966 0.955322H65.1576V19.9553H60.8966L51.8009 8.04974V19.9553H47.5399V0.955322H51.5278L60.8966 13.1871V0.955322ZM82.5565 4.62485V19.9553H78.2954V4.62485H72.8872V0.955322H87.9647V4.62485H82.5565ZM112.193 7.26146C112.193 10.3058 110.991 12.2629 108.56 13.1599L113.395 19.9553H108.151L103.917 13.8938H100.967V19.9553H96.7059V0.955322H103.944C106.922 0.955322 109.025 1.44459 110.309 2.45032C111.565 3.45604 112.193 5.05975 112.193 7.26146ZM104.081 10.2243C105.528 10.2243 106.539 9.97964 107.058 9.51755C107.577 9.05546 107.85 8.29437 107.85 7.26146C107.85 6.25574 107.577 5.54903 107.031 5.16848C106.484 4.78794 105.528 4.59766 104.163 4.59766H100.967V10.2243H104.081Z" fill="#0E0E0E"/>
</svg>
