<svg width="15" height="15" viewBox="0 0 12 13" fill="none" xmlns="http://www.w3.org/2000/svg">
<path d="M11.4042 11.2273L8.96567 8.78927C8.84578 8.66985 8.68344 8.6028 8.51421 8.6028C8.34498 8.6028 8.18265 8.66985 8.06276 8.78927C7.42019 9.41044 6.58968 9.80096 5.70133 9.89964C4.81298 9.99832 3.91698 9.7996 3.15371 9.33459C2.39043 8.86959 1.803 8.16458 1.48344 7.33001C1.16387 6.49544 1.13024 5.57846 1.38779 4.72273C1.64535 3.867 2.17955 3.12086 2.9067 2.6012C3.63386 2.08154 4.51289 1.81773 5.40608 1.85108C6.29927 1.88444 7.15617 2.21308 7.84252 2.78553C8.52887 3.35797 9.00591 4.14187 9.1989 5.01443C9.33719 5.64745 9.32294 6.30428 9.15733 6.93071C9.13777 7.00408 9.13286 7.08059 9.14287 7.15586C9.15289 7.23113 9.17763 7.30369 9.21569 7.3694C9.25375 7.43511 9.30439 7.49268 9.3647 7.53883C9.42502 7.58497 9.49384 7.61879 9.56722 7.63835C9.71543 7.67784 9.87327 7.65685 10.006 7.58C10.1387 7.50315 10.2355 7.37672 10.275 7.22854C10.5932 6.03301 10.4749 4.76326 9.94146 3.64701C9.40802 2.53075 8.49428 1.64101 7.3641 1.13734C6.23392 0.633672 4.96124 0.549027 3.77429 0.898584C2.58734 1.24814 1.56377 2.00903 0.887135 3.04481C0.210504 4.08058 -0.0749251 5.32348 0.0820359 6.55061C0.238997 7.77774 0.82808 8.90883 1.74364 9.74103C2.6592 10.5732 3.84135 11.0521 5.07809 11.0918C6.31482 11.1314 7.52524 10.7293 8.49228 9.9575L10.5867 12.0492C10.6404 12.103 10.7041 12.1456 10.7742 12.1747C10.8444 12.2038 10.9195 12.2188 10.9955 12.2188C11.0714 12.2188 11.1466 12.2038 11.2167 12.1747C11.2869 12.1456 11.3506 12.103 11.4042 12.0492C11.4587 11.9955 11.5019 11.9316 11.5314 11.861C11.5609 11.7905 11.5761 11.7148 11.5761 11.6383C11.5761 11.5618 11.5609 11.4861 11.5314 11.4156C11.5019 11.345 11.4587 11.281 11.4042 11.2273V11.2273Z" fill="#0E0E0E"/>
<path d="M6.98435 7.62329C6.89211 7.53762 6.77402 7.48501 6.64862 7.47372C6.52323 7.46244 6.39764 7.49312 6.29158 7.56096C5.9922 7.74565 5.64876 7.84671 5.29705 7.85361C4.94533 7.86052 4.59819 7.77301 4.29179 7.60021C4.18792 7.53961 4.06721 7.51428 3.94773 7.52801C3.82825 7.54175 3.71644 7.59381 3.62904 7.67639L3.5944 7.70872C3.53238 7.76779 3.48484 7.84038 3.45548 7.92083C3.42611 8.00128 3.41572 8.08742 3.4251 8.17254C3.43449 8.25766 3.4634 8.33947 3.50959 8.4116C3.55578 8.48372 3.61799 8.54421 3.69139 8.58836C4.18507 8.87294 4.74711 9.01732 5.31685 9.00593C5.88659 8.99453 6.44241 8.8278 6.92431 8.52371C6.99472 8.47899 7.05417 8.41901 7.09827 8.34821C7.14237 8.27741 7.16998 8.19761 7.17907 8.11471C7.18816 8.0318 7.1785 7.94791 7.15079 7.86925C7.12308 7.79058 7.07803 7.71915 7.01899 7.66023L6.98435 7.62329Z" fill="#BEE1E6"/>
</svg>
