<svg width="25" height="25" viewBox="0 0 25 25" fill="none" xmlns="http://www.w3.org/2000/svg">
<path d="M18.4325 8.22274C18.0274 8.18196 17.6682 8.47293 17.6257 8.87584L16.5959 18.6621C16.5452 19.2598 16.0547 19.7105 15.4548 19.7105H9.4748C8.87497 19.7105 8.38443 19.2598 8.33229 18.6474L7.30381 8.87584C7.26132 8.47264 6.89872 8.18092 6.49713 8.22274C6.09393 8.26523 5.80154 8.62641 5.84393 9.02952L6.8709 18.7865C6.98672 20.15 8.10623 21.1785 9.4748 21.1785H15.4548C16.8235 21.1785 17.9428 20.15 18.0572 18.8011L19.0856 9.02952C19.1281 8.62641 18.8356 8.26523 18.4325 8.22274Z" fill="#D90368"/>
<path d="M10.8707 5.88322C10.8707 5.00415 11.5859 4.28897 12.465 4.28897C13.3439 4.28897 14.0593 5.00415 14.0593 5.88322C14.0593 5.90347 14.0549 5.9223 14.0541 5.94236H10.8758C10.8751 5.9223 10.8707 5.90347 10.8707 5.88322ZM18.8398 5.94236H15.5246C15.525 5.92258 15.5272 5.90309 15.5272 5.88322C15.5272 4.19482 14.1536 2.82104 12.465 2.82104C10.7766 2.82104 9.4028 4.19482 9.4028 5.88322C9.4028 5.90309 9.40498 5.92249 9.40535 5.94236H6.08987C5.6845 5.94236 5.35596 6.2709 5.35596 6.67627C5.35596 7.08174 5.6845 7.41028 6.08987 7.41028H10.2583C10.2652 7.41047 10.2721 7.41189 10.2791 7.41189C10.2849 7.41189 10.2908 7.41047 10.2965 7.41028H14.6594C14.6679 7.41019 14.6765 7.41066 14.685 7.41028H18.8398C19.2452 7.41028 19.5737 7.08174 19.5737 6.67627C19.5737 6.2709 19.2452 5.94236 18.8398 5.94236Z" fill="#D90368"/>
<path d="M16.0718 10.9998C16.0718 10.5944 15.7432 10.2659 15.3379 10.2659H9.59192C9.18645 10.2659 8.85791 10.5944 8.85791 10.9998C8.85791 11.4053 9.18645 11.7338 9.59192 11.7338H15.3379C15.7432 11.7338 16.0718 11.4053 16.0718 10.9998Z" fill="#D90368"/>
<path d="M15.1909 13.9776C15.1909 13.5722 14.8623 13.2437 14.4569 13.2437H10.4724C10.0671 13.2437 9.73853 13.5722 9.73853 13.9776C9.73853 14.3829 10.0671 14.7115 10.4724 14.7115H14.4569C14.8623 14.7115 15.1909 14.3829 15.1909 13.9776Z" fill="#D90368"/>
<path d="M11.3533 16.2217C10.9479 16.2217 10.6194 16.5502 10.6194 16.9556C10.6194 17.3611 10.9479 17.6896 11.3533 17.6896H13.5762C13.9817 17.6896 14.3102 17.3611 14.3102 16.9556C14.3102 16.5502 13.9817 16.2217 13.5762 16.2217H11.3533Z" fill="#D90368"/>
</svg>
