<svg width="25" height="25" viewBox="0 0 18 18" fill="none" xmlns="http://www.w3.org/2000/svg">
<path d="M17.0802 14.8973L16.6371 12.8834C16.522 12.3534 16.2953 11.8514 15.9709 11.4081C15.6465 10.9649 15.2312 10.5897 14.7503 10.3056L12.0881 8.72633C12.5015 8.19759 12.7587 7.57182 12.8324 6.91487L13.0436 5.00719C13.1008 4.49237 13.0445 3.97175 12.8782 3.47915C12.7119 2.98654 12.4394 2.53295 12.0783 2.14782C11.7173 1.76269 11.2757 1.45463 10.7824 1.24364C10.289 1.03264 9.75489 0.923434 9.21464 0.923096H8.78882C8.24827 0.922969 7.71375 1.03184 7.21998 1.24263C6.72621 1.45341 6.28425 1.76141 5.92281 2.14659C5.56136 2.53177 5.28853 2.98552 5.12204 3.47836C4.95555 3.97119 4.89913 4.49209 4.95644 5.00719L5.17108 6.91487C5.2448 7.57182 5.50192 8.19759 5.9154 8.72633L3.2497 10.3056C2.76883 10.5897 2.35349 10.9649 2.02908 11.4081C1.70467 11.8514 1.478 12.3534 1.36293 12.8834L0.919803 14.8973C0.850221 15.2128 0.855045 15.5393 0.933924 15.8529C1.0128 16.1664 1.16374 16.4592 1.37573 16.7097C1.58772 16.9602 1.8554 17.1622 2.15924 17.301C2.46309 17.4397 2.79542 17.5117 3.13199 17.5116H14.868C15.2046 17.5117 15.5369 17.4397 15.8407 17.301C16.1446 17.1622 16.4123 16.9602 16.6243 16.7097C16.8363 16.4592 16.9872 16.1664 17.0661 15.8529C17.1449 15.5393 17.1498 15.2128 17.0802 14.8973ZM7.21017 3.24549C7.40939 3.03421 7.65311 2.86583 7.92523 2.75145C8.19735 2.63707 8.49169 2.5793 8.78882 2.58195H9.21464C9.51231 2.58168 9.80671 2.64153 10.0786 2.7576C10.3506 2.87367 10.5939 3.04334 10.7928 3.25557C10.9917 3.4678 11.1418 3.71781 11.2331 3.98932C11.3244 4.26083 11.3551 4.54774 11.323 4.83135L11.1118 6.73571C11.0559 7.23466 10.8095 7.69619 10.42 8.03156C10.0305 8.36692 9.52536 8.55245 9.00173 8.55245C8.4781 8.55245 7.97296 8.36692 7.58344 8.03156C7.19393 7.69619 6.94754 7.23466 6.89167 6.73571L6.68049 4.83135C6.64407 4.54604 6.67255 4.25655 6.76399 3.98279C6.85542 3.70904 7.00764 3.4575 7.21017 3.24549ZM15.28 15.6537C15.2312 15.7136 15.1687 15.7619 15.0972 15.7947C15.0257 15.8275 14.9473 15.844 14.868 15.8428H3.13199C3.05274 15.844 2.97428 15.8275 2.9028 15.7947C2.83131 15.7619 2.76874 15.7136 2.72002 15.6537C2.66973 15.5972 2.6331 15.5307 2.61276 15.459C2.59241 15.3873 2.58884 15.3122 2.60231 15.239L3.04544 13.2251C3.11562 12.915 3.25056 12.6217 3.44213 12.3628C3.63371 12.1039 3.87796 11.8849 4.16019 11.7189L7.32095 9.84108C7.8439 10.0856 8.41812 10.2127 9 10.2127C9.58187 10.2127 10.1561 10.0856 10.679 9.84108L13.8398 11.7189C14.1201 11.8859 14.3624 12.1054 14.5521 12.3642C14.7419 12.623 14.8752 12.9158 14.9442 13.2251L15.3873 15.239C15.4038 15.313 15.4027 15.3895 15.3841 15.463C15.3655 15.5365 15.3299 15.6051 15.28 15.6637V15.6537Z" fill="#0E0E0E"/>
<path d="M12.289 12.8669H10.558C10.0801 12.8669 9.69256 13.2383 9.69256 13.6964C9.69256 14.1544 10.0801 14.5258 10.558 14.5258H12.289C12.767 14.5258 13.1545 14.1544 13.1545 13.6964C13.1545 13.2383 12.767 12.8669 12.289 12.8669Z" fill="#BEE1E6"/>
</svg>
