<svg width="34" height="34" viewBox="0 0 34 34" fill="none" xmlns="http://www.w3.org/2000/svg">
<path d="M4.52924 27.736C4.86808 27.736 5.21392 27.758 5.54876 27.778C5.85562 27.798 6.14848 27.817 6.42535 27.817C9.99767 27.817 14.0348 27.839 18.0889 27.861C22.3369 27.882 26.6029 27.9039 30.3741 27.9049C30.3251 25.5281 30.3031 23.1492 30.2921 20.7683C27.1506 23.5 22.3269 23.9128 19.6971 23.9128C19.1624 23.9128 18.6386 23.8968 18.1338 23.8658C15.8999 23.7339 13.1862 23.0592 12.9543 20.6044C12.8273 19.256 13.607 18.1595 15.2182 17.4059C10.9502 18.0496 7.07105 20.2765 3.80858 22.4035C3.78059 22.4226 3.74994 22.4374 3.71762 22.4475V22.8563C3.71762 23.3421 3.72662 23.8319 3.73661 24.3236C3.77871 25.4843 3.76036 26.6463 3.68164 27.805C3.96175 27.7584 4.24528 27.7353 4.52924 27.736V27.736ZM17.0134 17.5918C16.0497 17.7827 15.1519 18.22 14.4076 18.8612C14.187 19.0744 14.0161 19.3336 13.9071 19.6204C13.798 19.9072 13.7536 20.2145 13.7769 20.5204C13.8169 20.8637 13.9307 21.1943 14.1107 21.4893C14.2907 21.7844 14.5325 22.037 14.8194 22.2296C16.0494 22.9314 17.46 23.2522 18.8725 23.1512C19.3723 23.1512 19.855 23.1332 20.3068 23.1162L20.4877 23.1082C19.404 22.6682 18.4857 21.8991 17.8624 20.9094C17.2391 19.9197 16.9421 18.7593 17.0134 17.5918V17.5918ZM16.3967 16.5923C16.7449 16.5634 17.0936 16.6415 17.3962 16.8162C17.5143 16.9065 17.6059 17.0272 17.6611 17.1653C17.7164 17.3034 17.7333 17.4539 17.71 17.6008C17.71 17.6748 17.71 17.7497 17.71 17.8297C17.7366 18.2395 17.7954 18.6466 17.886 19.0471C18.0559 19.8332 18.4155 20.5658 18.9335 21.1811C19.0234 21.2811 19.1174 21.381 19.2163 21.481C19.9307 22.1167 20.7928 22.5634 21.7241 22.7804C21.992 22.8519 22.2686 22.8856 22.5458 22.8803C23.2217 22.8518 23.8923 22.7472 24.5448 22.5685C26.6331 22.0789 28.6005 21.171 30.3281 19.8997C30.2781 17.3399 30.2841 14.7022 30.2911 12.0564C30.2951 10.0887 30.2974 8.12292 30.2981 6.15918H27.5774C20.2878 6.16618 11.0772 6.16618 3.72262 6.16618V21.5689C6.45317 19.6457 9.47493 18.1737 12.6724 17.209C13.5991 16.9421 14.5472 16.7565 15.5061 16.6542C15.8003 16.6183 16.0963 16.5977 16.3927 16.5923H16.3967Z" fill="#528693"/>
<path d="M17.1307 17.4508C16.0977 17.646 15.1333 18.1065 14.3321 18.7872C14.0903 19.0286 13.9066 19.3219 13.795 19.6448C13.6834 19.9677 13.6467 20.3118 13.6877 20.651C13.7287 20.9902 13.8464 21.3156 14.0318 21.6026C14.2172 21.8896 14.4655 22.1307 14.7579 22.3075C16.2682 23.374 18.5781 23.278 20.3552 23.2071C20.5481 23.2001 20.7361 23.1881 20.929 23.1741C19.7387 22.7954 18.7133 22.0216 18.0227 20.9809C17.332 19.9401 17.0173 18.6947 17.1307 17.4508V17.4508ZM30.3915 20.5493C27.293 23.382 22.1364 24.0107 18.1453 23.7708C16.1462 23.6519 13.2926 23.0631 13.0587 20.5983C12.8887 18.7872 14.414 17.7696 15.9573 17.2109C11.5084 17.6807 7.47329 19.8986 3.76304 22.3155C3.72297 22.3435 3.67496 22.3579 3.6261 22.3565V22.8562C3.6261 24.5335 3.73705 26.2546 3.57812 27.9279C4.5261 27.8354 5.48081 27.8354 6.42878 27.9279C13.7803 27.9279 23.0939 28.0168 30.4795 28.0168C30.4245 25.521 30.4025 23.0332 30.3915 20.5453V20.5493ZM17.3347 16.8921C17.6865 17.1509 17.5865 17.4578 17.6125 17.8316C17.6401 18.2467 17.6996 18.6591 17.7904 19.065C17.9656 19.8662 18.3326 20.6129 18.8599 21.241C18.9529 21.341 19.0488 21.4489 19.1488 21.5409C19.8745 22.1895 20.7517 22.6453 21.6996 22.8662C22.6892 23.0315 23.7042 22.954 24.6572 22.6403C26.7266 22.1496 28.6754 21.2456 30.3865 19.9826C30.3715 15.3408 30.4015 10.695 30.3975 6.05615H27.5778C20.2553 6.06415 10.9936 6.06415 3.6231 6.06415V21.7568C6.38725 19.7902 9.45285 18.2862 12.6998 17.3039C13.6214 17.039 14.5641 16.8544 15.5175 16.7521C16.1239 16.6206 16.7555 16.6693 17.3347 16.8921Z" fill="#528693"/>
<path d="M31.0848 28.4157C31.0859 28.4711 31.0702 28.5255 31.0399 28.5719C31.0096 28.6182 30.966 28.6544 30.9149 28.6756C30.8738 28.7037 30.8247 28.7178 30.775 28.7156C30.2552 28.7156 29.7055 28.7056 29.1457 28.6856C28.586 28.6656 28.0463 28.6656 27.5265 28.6656C22.8987 28.6756 18.3608 28.6956 13.823 28.6956H13.5631C11.8739 28.6956 10.2146 28.6756 8.53544 28.6556C6.98617 28.6456 5.41691 28.6256 3.75769 28.6156C3.61775 28.6156 2.82812 28.5957 2.82812 28.5957V28.5057C2.82812 28.5057 2.82812 26.4167 2.83812 25.8569C2.84812 25.4371 2.86811 25.0173 2.8881 24.5975C2.91808 23.9578 2.94807 23.3281 2.94807 22.6984C2.94807 21.7489 2.91808 20.7993 2.8881 19.8498C2.85811 18.9002 2.83812 17.9407 2.83812 16.9911V5.67644C2.83812 5.57305 2.87919 5.4739 2.9523 5.4008C3.0254 5.32769 3.12455 5.28662 3.22794 5.28662H6.43643C13.8529 5.28662 23.3685 5.28662 30.785 5.29662C30.8857 5.29662 30.9823 5.33663 31.0535 5.40786C31.1248 5.47909 31.1648 5.5757 31.1648 5.67644C31.1648 7.64551 31.1648 9.64457 31.1748 11.6436C31.1848 17.192 31.2008 22.9183 31.0848 28.4157Z" fill="#528693"/>
<path d="M17.1293 17.4507C17.0149 18.6953 17.3291 19.9416 18.0198 20.9832C18.7106 22.0248 19.7365 22.7991 20.9275 23.178C20.7346 23.192 20.5467 23.204 20.3538 23.211C18.5766 23.2779 16.2667 23.3739 14.7564 22.3114C14.464 22.1346 14.2157 21.8935 14.0303 21.6065C13.8449 21.3195 13.7272 20.9941 13.6862 20.6549C13.6452 20.3157 13.6819 19.9716 13.7935 19.6487C13.9052 19.3258 14.0888 19.0325 14.3306 18.7911C15.1314 18.109 16.0959 17.6471 17.1293 17.4507V17.4507Z" fill="white"/>
<path d="M30.3906 20.5452C30.4016 23.033 30.4236 25.5208 30.4756 28.0046C23.09 28.0046 13.7764 27.9197 6.42488 27.9157C5.56928 27.9157 3.57422 27.9157 3.57422 27.9157C3.57422 27.9157 3.6222 24.5173 3.6222 22.8441V22.3443C3.67106 22.3457 3.71906 22.3313 3.75913 22.3033C7.47238 19.8865 11.5075 17.6685 15.9534 17.1987C14.4101 17.7575 12.8848 18.775 13.0548 20.5861C13.2886 23.051 16.1463 23.6397 18.1414 23.7586C22.1355 24.0065 27.2921 23.3778 30.3906 20.5452Z" fill="white"/>
<path d="M30.3984 6.05615C30.3984 10.695 30.3725 15.3408 30.3875 19.9826C28.6767 21.2485 26.7275 22.1553 24.6571 22.6483C23.7041 22.962 22.6892 23.0395 21.6995 22.8742C20.7516 22.6533 19.8745 22.1975 19.1487 21.5489C19.0488 21.4489 18.9488 21.349 18.8599 21.249C18.3325 20.6209 17.9655 19.8742 17.7904 19.073C17.6995 18.6671 17.6401 18.2547 17.6125 17.8396C17.5865 17.4658 17.6864 17.1589 17.3346 16.9001C16.756 16.6756 16.1243 16.6252 15.5175 16.7551C14.5641 16.8574 13.6213 17.042 12.6998 17.3069C9.45279 18.2892 6.38719 19.7932 3.62305 21.7598V6.06415C10.9936 6.06415 20.2552 6.06415 27.5778 6.05615H30.3984ZM27.5878 13.3047C28.9951 11.0208 27.3109 8.38106 24.4153 8.57797C24.0236 8.56761 23.6338 8.63508 23.2685 8.77647C22.9031 8.91786 22.5695 9.13036 22.2868 9.40165C22.0042 9.67294 21.7782 9.99763 21.622 10.3569C21.4657 10.7162 21.3824 11.1029 21.3767 11.4946C21.3352 11.9018 21.3754 12.3132 21.495 12.7046C21.6146 13.0961 21.8111 13.4597 22.0731 13.7742C22.3351 14.0887 22.6572 14.3477 23.0206 14.536C23.384 14.7244 23.7814 14.8383 24.1894 14.871C24.8448 14.9447 25.5079 14.8377 26.1069 14.5616C26.7059 14.2855 27.218 13.8509 27.5878 13.3047Z" fill="#BFF6F8"/>
<path d="M26.8507 13.2569C27.0726 13.0093 27.2385 12.7167 27.337 12.3991C27.4355 12.0816 27.4643 11.7465 27.4214 11.4167C27.3187 10.7772 26.9857 10.1973 26.4851 9.78621C25.9846 9.37512 25.351 9.16122 24.7037 9.18478C24.6107 9.18478 24.5148 9.18478 24.4228 9.19578C24.1132 9.18701 23.805 9.23967 23.5159 9.35072C23.2268 9.46177 22.9626 9.62901 22.7385 9.84277C22.5145 10.0565 22.335 10.3126 22.2104 10.5961C22.0859 10.8797 22.0188 11.1851 22.0129 11.4947C21.9753 11.8173 22.0022 12.1443 22.0919 12.4565C22.1816 12.7687 22.3324 13.0599 22.5356 13.3134C22.7388 13.5669 22.9902 13.7775 23.2754 13.933C23.5606 14.0885 23.8738 14.1859 24.1969 14.2194C24.2969 14.2264 24.3968 14.2304 24.4968 14.2304C24.9351 14.2393 25.3704 14.1574 25.7755 13.9898C26.1806 13.8223 26.5467 13.5727 26.8507 13.2569ZM24.4108 8.57807C27.3095 8.37816 28.9907 11.0209 27.5833 13.3048C27.2136 13.851 26.7015 14.2856 26.1025 14.5617C25.5035 14.8378 24.8404 14.9448 24.1849 14.8711C23.7772 14.838 23.3802 14.7238 23.0171 14.5353C22.6541 14.3468 22.3323 14.0877 22.0706 13.7733C21.809 13.4588 21.6127 13.0953 21.4933 12.7041C21.3739 12.3128 21.3337 11.9017 21.3752 11.4947C21.3809 11.1032 21.4642 10.7168 21.6202 10.3577C21.7763 9.99865 22.002 9.6741 22.2843 9.40285C22.5666 9.1316 22.8999 8.91903 23.265 8.77746C23.63 8.63589 24.0194 8.56812 24.4108 8.57807V8.57807Z" fill="#528693"/>
<path d="M27.477 11.4105C27.521 11.7469 27.4918 12.0887 27.3914 12.4127C27.291 12.7367 27.1218 13.0352 26.8953 13.2877C26.586 13.6107 26.2132 13.8662 25.8003 14.0382C25.3875 14.2102 24.9436 14.295 24.4964 14.2872C24.3905 14.2872 24.2885 14.2872 24.1866 14.2752C23.8568 14.2416 23.5371 14.1426 23.2459 13.9842C22.9548 13.8258 22.698 13.611 22.4907 13.3524C22.2833 13.0938 22.1295 12.7966 22.0382 12.4779C21.9468 12.1593 21.9198 11.8257 21.9586 11.4965C21.964 11.1803 22.0322 10.8683 22.159 10.5786C22.2859 10.2888 22.4689 10.0272 22.6976 9.8087C22.9263 9.59023 23.1961 9.41931 23.4913 9.30583C23.7865 9.19235 24.1013 9.13858 24.4175 9.14761C24.5114 9.13962 24.6094 9.13562 24.7043 9.13562C25.3644 9.11135 26.0107 9.32922 26.5213 9.74821C27.032 10.1672 27.3719 10.7584 27.477 11.4105V11.4105Z" fill="white"/>
</svg>
