<?xml version="1.0" standalone="no"?>
<!DOCTYPE svg PUBLIC "-//W3C//DTD SVG 20010904//EN"
 "http://www.w3.org/TR/2001/REC-SVG-20010904/DTD/svg10.dtd">
<svg version="1.0" xmlns="http://www.w3.org/2000/svg"
 width="260.000000pt" height="260.000000pt" viewBox="0 0 260.000000 260.000000"
 preserveAspectRatio="xMidYMid meet">
<metadata>
Created by potrace 1.14, written by Peter Selinger 2001-2017
</metadata>
<g transform="translate(0.000000,260.000000) scale(0.100000,-0.100000)"
fill="#000000" stroke="none">
<path d="M1105 2589 c-568 -84 -995 -456 -1090 -949 -21 -108 -14 -310 15
-420 24 -92 106 -276 134 -299 26 -22 38 -1 19 34 -71 132 -106 228 -128 350
-15 89 -14 259 4 345 84 414 432 753 890 870 102 25 168 35 281 42 l45 3 3
-197 2 -197 -25 -25 c-17 -17 -25 -36 -25 -59 0 -34 -1 -34 -67 -52 -91 -24
-182 -72 -205 -110 -12 -19 -17 -44 -16 -70 l3 -40 355 0 355 0 2 30 c5 87
-44 132 -196 181 -90 30 -95 33 -97 60 -2 41 -2 41 -23 61 -18 17 -20 32 -18
218 l2 200 40 -3 c170 -12 257 -28 390 -74 169 -58 352 -165 463 -271 44 -42
156 -175 179 -212 110 -176 164 -368 159 -564 -5 -168 -36 -288 -117 -441 -25
-47 -35 -78 -29 -84 34 -34 138 188 175 374 29 147 9 372 -46 520 -141 382
-523 685 -966 766 -101 18 -379 26 -468 13z m216 -485 c5 -52 6 -51 -41 -45
-14 1 -13 44 1 58 14 14 39 6 40 -13z m148 -118 c74 -26 140 -67 143 -89 5
-44 18 -42 -271 -47 -331 -6 -361 -4 -361 20 0 49 87 105 209 135 81 20 192
12 280 -19z"/>
<path d="M617 1620 c-88 -97 -97 -201 -29 -332 2 -5 -17 -8 -43 -8 -45 0 -46
-1 -41 -27 30 -153 38 -204 33 -209 -3 -4 -51 -7 -106 -8 -55 0 -102 -4 -106
-7 -10 -10 -12 -132 -3 -151 7 -14 21 -18 69 -18 45 0 60 -3 56 -12 -2 -7 -21
-67 -41 -132 -27 -86 -34 -121 -26 -126 20 -12 83 -5 92 11 5 8 26 68 47 134
l37 120 116 3 117 3 42 -133 c23 -73 46 -136 52 -140 14 -8 76 -3 87 8 4 5 -7
55 -25 111 -54 167 -55 152 17 155 l63 3 0 85 0 85 -107 1 c-60 0 -110 3 -114
6 -3 3 2 43 11 89 9 46 18 99 21 117 l5 32 -45 0 c-45 0 -55 7 -36 26 17 17
37 118 33 163 -5 51 -34 114 -72 154 -48 52 -55 52 -104 -3z m113 -80 c35 -68
28 -162 -16 -227 l-19 -28 -5 135 c-4 111 -8 135 -20 135 -12 0 -16 -24 -20
-135 l-5 -135 -23 32 c-50 71 -48 173 5 251 l36 53 24 -23 c14 -13 33 -39 43
-58z m56 -330 c-3 -19 -8 -46 -11 -60 -2 -13 -7 -42 -11 -65 -3 -22 -8 -42
-10 -44 -3 -4 -92 -5 -150 -2 -11 1 -21 7 -21 14 0 6 -8 50 -17 95 -9 46 -14
87 -12 91 2 3 57 6 121 6 l117 0 -6 -35z m204 -260 c0 -33 -4 -50 -12 -51 -18
-1 -590 -1 -605 0 -9 1 -13 18 -13 51 l0 50 315 0 315 0 0 -50z m-480 -97 c0
-23 -73 -233 -82 -233 -5 0 -8 6 -6 13 3 6 20 60 38 120 18 59 37 107 42 107
4 0 8 -3 8 -7z m343 0 c15 -25 74 -234 65 -231 -13 5 -89 238 -77 238 4 0 10
-3 12 -7z"/>
<path d="M428 964 c-4 -3 -4 -12 -1 -20 4 -11 49 -14 250 -14 227 0 244 1 241
18 -3 15 -24 17 -244 20 -132 1 -243 0 -246 -4z"/>
<path d="M1636 1569 c-27 -10 -65 -33 -83 -51 -58 -56 -65 -84 -66 -268 0
-141 -2 -161 -13 -135 -15 37 -50 69 -89 82 -16 6 -109 10 -205 9 -148 -1
-175 -3 -175 -16 0 -12 21 -16 119 -18 l118 -3 -6 -31 c-3 -17 -6 -37 -6 -44
0 -8 -21 -24 -47 -36 -101 -48 -121 -143 -48 -218 l37 -38 -19 -101 c-19 -100
-19 -114 4 -118 14 -3 16 4 38 117 10 47 21 87 25 90 4 3 69 4 143 2 l135 -3
17 -97 c18 -97 29 -119 51 -101 9 8 9 23 -1 67 -7 31 -16 74 -19 95 l-7 37
139 0 139 0 -19 -96 c-14 -69 -17 -99 -9 -107 12 -12 33 3 37 25 14 91 30 167
36 173 1 1 44 5 93 8 50 2 107 11 128 20 20 9 41 17 45 19 4 2 18 -53 32 -122
19 -93 29 -125 40 -125 21 0 20 31 -7 162 l-22 113 32 51 32 52 0 238 0 237
-30 44 c-19 26 -52 54 -85 73 l-55 29 -190 2 c-164 2 -197 -1 -239 -17z m449
-38 c22 -10 50 -28 62 -40 47 -45 51 -64 51 -286 0 -184 -2 -216 -18 -250 -10
-22 -19 -35 -20 -30 0 6 -9 52 -19 102 -34 168 -48 177 -296 179 -170 2 -213
-4 -199 -27 3 -5 59 -9 126 -9 92 0 119 -3 115 -12 -2 -7 -17 -84 -33 -170
l-29 -158 -303 0 c-251 0 -308 3 -332 15 -74 38 -75 137 -2 174 35 18 62 19
320 20 156 0 287 3 293 6 7 5 7 11 0 19 -7 8 -50 12 -141 11 l-130 0 0 170 c0
205 9 230 99 277 53 28 55 28 235 28 155 0 187 -3 221 -19z m-702 -373 c31
-16 45 -32 52 -59 6 -24 5 -24 -74 -24 -44 1 -82 3 -85 6 -3 2 -2 23 1 47 6
41 6 42 45 42 22 0 49 -5 61 -12z m673 -22 c19 -19 35 -43 35 -55 1 -12 2 -24
3 -28 3 -12 18 -108 18 -110 -1 -2 3 -16 8 -32 8 -28 5 -32 -28 -52 -29 -18
-57 -23 -129 -27 -60 -3 -93 -1 -93 6 0 6 14 81 30 167 17 86 30 159 30 161 0
2 21 4 46 4 39 0 51 -5 80 -34z"/>
<path d="M360 135 l0 -135 35 0 35 0 0 50 c0 28 3 51 8 51 4 1 30 2 57 3 59 2
74 9 72 36 -1 18 -9 20 -70 20 l-68 0 3 27 c3 27 5 28 63 28 68 1 84 7 81 33
-3 15 -17 17 -109 20 l-107 3 0 -136z"/>
<path d="M717 151 c0 -67 2 -128 2 -136 1 -10 12 -15 36 -15 19 0 34 3 34 8
-1 4 -1 24 0 44 1 31 4 37 22 35 12 -1 37 -21 56 -44 31 -37 41 -43 74 -43 22
0 39 3 39 8 -1 4 -16 25 -34 46 l-34 39 25 21 c36 32 41 86 10 121 -24 28 -29
30 -128 33 l-104 4 2 -121z m159 60 c18 -2 25 -30 14 -52 -8 -14 -21 -19 -54
-19 -23 0 -45 2 -47 5 -3 2 -3 20 -1 39 4 37 5 37 88 27z"/>
<path d="M1129 268 c-1 -2 -2 -63 -3 -135 l-1 -133 35 0 35 0 0 73 c-1 39 0
75 2 79 2 4 36 -28 74 -72 62 -71 75 -80 105 -80 l34 0 0 135 0 135 -35 0 -34
0 -3 -83 -3 -84 -70 83 c-61 72 -74 83 -102 84 -18 0 -33 -1 -34 -2z"/>
<path d="M1538 264 c-3 -3 -4 -14 -1 -25 5 -17 22 -24 47 -20 4 1 16 -1 25 -4
14 -4 16 -20 16 -107 l0 -103 35 0 35 0 1 90 c2 129 -1 122 39 123 46 2 54 7
48 32 -5 19 -14 20 -122 20 -65 0 -120 -3 -123 -6z"/>
<path d="M1922 135 l0 -135 33 0 c32 0 34 2 37 42 2 30 8 42 21 44 18 2 27 -5
70 -55 23 -28 32 -32 68 -29 l40 3 -37 44 c-33 38 -35 44 -21 53 19 10 46 58
42 73 -2 6 -6 23 -9 38 -9 40 -56 57 -160 57 l-85 0 1 -135z m161 73 c21 -11
22 -54 1 -62 -9 -3 -33 -6 -55 -6 -39 0 -39 0 -39 40 0 39 0 39 38 38 20 0 45
-5 55 -10z"/>
</g>
</svg>
